if (_typeface_js && _typeface_js.loadFace) _typeface_js.loadFace({"glyphs":{"S":{"x_min":26.390625,"x_max":809.78125,"ha":879,"o":"m 780 820 l 719 784 q 597 888 670 862 q 425 916 525 915 q 296 901 358 916 q 182 838 234 886 q 130 719 130 791 q 147 655 130 683 q 186 610 163 627 q 253 577 209 593 q 332 554 297 562 q 427 536 368 547 q 676 468 609 501 q 809 256 809 402 q 772 122 809 179 q 676 38 736 66 q 554 -2 616 9 q 425 -15 493 -15 q 190 38 301 -15 q 26 195 79 91 l 93 229 q 231 99 134 145 q 425 52 327 52 q 525 61 476 52 q 623 90 573 69 q 704 154 673 111 q 734 258 734 197 q 723 321 734 293 q 686 370 712 350 q 636 405 661 391 q 568 431 612 419 q 495 450 523 444 q 415 466 468 456 q 325 484 356 477 q 244 506 294 491 q 167 537 194 520 q 111 579 140 554 q 68 638 81 604 q 55 716 55 673 q 88 845 54 790 q 179 929 122 900 q 298 972 237 958 q 425 986 359 986 q 629 952 545 986 q 780 820 713 919 "},"¦":{"x_min":73.609375,"x_max":148.625,"ha":271,"o":"m 148 475 l 73 475 l 73 980 l 148 980 l 148 475 m 73 381 l 148 381 l 148 -122 l 73 -122 l 73 381 "},"/":{"x_min":-16.671875,"x_max":576.4375,"ha":606,"o":"m 56 -113 l -16 -113 l 501 1054 l 576 1054 l 56 -113 "},"y":{"x_min":23.609375,"x_max":662.546875,"ha":718,"o":"m 588 686 l 662 686 l 244 -286 l 172 -286 l 298 8 l 23 686 l 97 686 l 256 280 l 337 81 l 416 281 l 588 686 "},"Ž":{"x_min":18.0625,"x_max":755.609375,"ha":803,"o":"m 51 972 l 51 902 l 636 902 l 18 31 l 18 0 l 755 0 l 755 73 l 129 73 l 755 945 l 755 972 l 51 972 m 640 1259 l 443 1076 l 387 1076 l 190 1259 l 190 1269 l 263 1269 l 415 1136 l 566 1269 l 640 1269 l 640 1259 "},"Á":{"x_min":-11.109375,"x_max":943.125,"ha":964,"o":"m 862 0 l 943 0 l 506 972 l 425 972 l -11 0 l 69 0 l 175 238 l 755 238 l 862 0 m 726 308 l 204 308 l 465 900 l 726 308 m 487 1070 l 420 1070 l 420 1076 l 525 1243 l 615 1243 l 615 1241 l 487 1070 "},"g":{"x_min":41.671875,"x_max":693.109375,"ha":754,"o":"m 561 636 l 627 713 l 672 675 l 605 597 q 690 363 690 505 q 639 190 690 272 q 505 72 588 109 q 693 -173 693 5 q 601 -377 693 -306 q 366 -447 509 -447 q 134 -373 226 -447 q 41 -173 41 -300 l 109 -173 q 183 -327 109 -273 q 366 -380 256 -380 q 552 -328 479 -380 q 626 -173 626 -276 q 550 -19 626 -70 q 366 31 473 31 q 132 127 220 31 q 44 363 44 222 q 136 609 44 519 q 366 698 227 698 q 561 636 473 698 m 550 559 q 366 630 477 630 q 184 561 255 630 q 112 363 112 493 q 182 177 112 254 q 366 100 252 100 q 547 178 472 100 q 623 363 623 256 q 550 559 623 488 "},"²":{"x_min":131.953125,"x_max":506.984375,"ha":642,"o":"m 198 948 l 134 948 q 322 1095 134 1095 q 453 1062 400 1095 q 506 948 506 1029 q 323 798 506 798 q 238 777 277 798 q 198 704 198 757 l 198 652 l 498 652 l 498 594 l 131 594 l 131 705 q 188 817 131 777 q 323 857 244 857 q 441 948 441 857 q 320 1037 441 1037 q 231 1019 263 1037 q 198 948 198 1001 "},"–":{"x_min":44.453125,"x_max":663.9375,"ha":763,"o":"m 44 388 l 44 459 l 663 459 l 663 388 l 44 388 "},"ë":{"x_min":37.5,"x_max":727.84375,"ha":825,"o":"m 386 -9 q 552 24 472 -9 q 682 122 633 58 l 633 161 q 526 84 595 112 q 386 56 456 56 q 196 125 276 56 q 106 311 116 194 l 725 311 q 643 598 743 500 q 386 697 544 697 q 138 596 240 697 q 37 343 37 495 q 137 86 37 183 q 386 -9 237 -9 m 106 370 q 197 563 118 493 q 386 634 276 634 q 587 565 512 634 q 663 370 662 495 l 106 370 m 210 878 q 193 918 193 893 q 210 957 193 943 q 247 972 227 972 q 285 957 268 972 q 302 918 302 943 q 285 878 302 893 q 247 863 268 863 q 210 878 227 863 m 507 878 q 490 918 490 893 q 507 957 490 943 q 545 972 525 972 q 582 957 565 972 q 600 918 600 943 q 582 878 600 893 q 545 863 565 863 q 507 878 525 863 "},"ƒ":{"x_min":-81.953125,"x_max":511.15625,"ha":536,"o":"m 169 -1 l 169 620 l 29 620 l 29 680 l 169 680 l 169 741 q 375 976 169 976 q 511 929 448 976 l 477 879 q 372 913 419 913 q 236 741 236 913 l 236 680 l 462 680 l 462 620 l 236 620 l 236 -1 q 195 -176 236 -115 q 48 -237 154 -237 q -81 -188 -16 -237 l -50 -141 q 51 -176 -6 -176 q 142 -134 115 -176 q 169 -1 169 -93 "},"Î":{"x_min":-80.5625,"x_max":323.640625,"ha":289,"o":"m 90 0 l 163 0 l 163 972 l 90 972 l 90 0 m -80 1065 l 97 1247 l 147 1247 l 323 1065 l 323 1055 l 258 1055 l 122 1187 l -13 1055 l -80 1055 l -80 1065 "},"e":{"x_min":37.5,"x_max":727.84375,"ha":825,"o":"m 386 -9 q 137 86 237 -9 q 37 343 37 183 q 138 596 37 495 q 386 697 240 697 q 643 598 544 697 q 725 311 743 500 l 106 311 q 196 125 116 194 q 386 56 276 56 q 526 84 456 56 q 633 161 595 112 l 682 122 q 552 24 633 58 q 386 -9 472 -9 m 106 370 l 663 370 q 587 565 662 495 q 386 634 512 634 q 197 563 276 634 q 106 370 118 493 "},"Ã":{"x_min":-11.109375,"x_max":943.125,"ha":964,"o":"m 943 0 l 862 0 l 755 238 l 175 238 l 69 0 l -11 0 l 425 972 l 506 972 l 943 0 m 204 308 l 726 308 l 465 900 l 204 308 m 338 1090 l 291 1105 q 347 1189 298 1166 q 447 1186 397 1212 l 504 1155 q 554 1150 529 1141 q 588 1191 580 1158 l 636 1176 q 580 1091 630 1113 q 480 1095 530 1068 l 423 1126 q 372 1131 398 1140 q 338 1090 347 1122 "},"J":{"x_min":50,"x_max":818.125,"ha":943,"o":"m 744 366 l 744 907 l 372 907 l 372 972 l 818 972 l 818 366 q 710 87 818 190 q 433 -15 602 -15 q 158 91 266 -15 q 50 366 50 198 l 119 366 q 208 141 119 229 q 433 54 297 54 q 658 136 572 54 q 744 366 744 219 "},"»":{"x_min":43.0625,"x_max":437.53125,"ha":517,"o":"m 437 440 l 245 134 l 173 134 l 173 143 l 361 440 l 173 737 l 173 744 l 245 744 l 437 440 m 306 440 l 115 134 l 43 134 l 43 143 l 230 440 l 43 737 l 43 744 l 115 744 l 306 440 "},"©":{"x_min":88.890625,"x_max":1091.75,"ha":1224,"o":"m 590 990 q 957 845 822 990 q 1091 483 1091 700 q 957 122 1091 268 q 590 -23 822 -23 q 222 122 356 -23 q 88 483 88 268 q 222 845 88 700 q 590 990 356 990 m 797 294 l 748 345 q 607 286 688 286 q 463 344 522 286 q 405 487 405 402 q 463 629 405 572 q 607 687 522 687 q 748 629 687 687 l 797 679 q 607 758 720 758 q 413 680 491 758 q 334 487 334 602 q 413 293 334 372 q 607 215 491 215 q 797 294 720 215 m 158 483 q 274 165 158 291 q 590 38 390 38 q 905 165 790 38 q 1020 483 1020 291 q 905 802 1020 676 q 590 929 790 929 q 274 802 390 929 q 158 483 158 676 "},"˘":{"x_min":43.0625,"x_max":393.09375,"ha":463,"o":"m 334 972 l 393 972 q 346 846 393 891 q 218 801 300 801 q 88 846 134 801 q 43 972 43 891 l 98 972 q 218 857 98 857 q 309 891 283 857 q 334 972 334 925 "},"ò":{"x_min":44.453125,"x_max":741.71875,"ha":822,"o":"m 641 86 q 393 -9 541 -9 q 144 86 244 -9 q 44 341 44 181 q 144 600 44 501 q 393 698 244 698 q 641 600 541 698 q 741 341 741 501 q 641 86 741 181 m 191 134 q 393 56 272 56 q 594 134 513 56 q 675 341 675 212 q 593 553 675 472 q 393 634 512 634 q 192 553 273 634 q 111 341 111 472 q 191 134 111 212 m 450 813 l 383 813 l 255 979 l 255 980 l 345 980 l 450 819 l 450 813 "},"^":{"x_min":16.671875,"x_max":669.5,"ha":717,"o":"m 669 533 l 666 529 l 594 529 l 343 913 l 91 529 l 19 529 l 16 533 l 308 972 l 377 972 l 669 533 "},"«":{"x_min":41.671875,"x_max":436.140625,"ha":517,"o":"m 41 440 l 233 744 l 305 744 l 305 737 l 118 440 l 305 143 l 305 134 l 233 134 l 41 440 m 363 134 l 172 440 l 363 744 l 436 744 l 436 737 l 248 440 l 436 143 l 436 134 l 363 134 "},"D":{"x_min":81.953125,"x_max":904.46875,"ha":985,"o":"m 411 972 q 625 932 530 972 q 779 823 720 891 q 870 672 838 755 q 904 497 901 588 q 877 315 907 402 q 788 156 847 227 q 631 42 729 84 q 411 0 534 0 l 81 0 l 81 972 l 411 972 m 411 901 l 156 901 l 156 72 l 411 72 q 722 199 613 72 q 829 497 832 326 q 717 782 826 663 q 411 901 608 901 "},"ł":{"x_min":-18.0625,"x_max":262.515625,"ha":276,"o":"m 81 972 l 150 972 l 150 509 l 262 555 l 262 480 l 150 436 l 150 0 l 81 0 l 81 409 l -18 370 l -18 443 l 81 483 l 81 972 "},"ÿ":{"x_min":23.609375,"x_max":662.546875,"ha":718,"o":"m 662 686 l 588 686 l 416 281 l 337 81 l 256 280 l 97 686 l 23 686 l 298 8 l 172 -286 l 244 -286 l 662 686 m 155 926 q 181 972 155 959 q 234 972 208 986 q 259 926 259 959 q 234 881 259 894 q 181 881 208 868 q 155 926 155 894 m 438 926 q 465 972 438 959 q 517 972 491 986 q 543 926 543 959 q 517 881 543 894 q 465 881 491 868 q 438 926 438 894 "},"Ł":{"x_min":-8.328125,"x_max":711.171875,"ha":783,"o":"m 88 972 l 163 972 l 163 513 l 325 581 l 325 506 l 163 440 l 163 70 l 711 70 l 711 0 l 88 0 l 88 409 l -8 370 l -8 443 l 88 483 l 88 972 "},"í":{"x_min":56.953125,"x_max":212.515625,"ha":244,"o":"m 120 805 l 56 805 l 56 811 l 134 973 l 212 973 l 212 972 l 120 805 m 131 688 l 63 688 l 63 0 l 131 0 l 131 688 "},"ˆ":{"x_min":50,"x_max":500.046875,"ha":585,"o":"m 50 790 l 247 973 l 302 973 l 500 790 l 500 780 l 426 780 l 275 913 l 123 780 l 50 780 l 50 790 "},"w":{"x_min":-1.390625,"x_max":1027.859375,"ha":1063,"o":"m 1027 686 l 784 0 l 709 0 l 598 300 l 515 566 l 429 298 l 318 0 l 243 0 l -1 686 l 73 686 l 280 79 l 490 686 l 538 686 l 747 79 l 952 686 l 1027 686 "},"$":{"x_min":27.78125,"x_max":809.78125,"ha":879,"o":"m 394 1118 l 456 1118 l 456 979 q 648 932 561 973 q 780 811 736 890 l 715 775 q 597 875 679 843 q 425 909 515 908 q 329 899 377 909 q 234 868 280 888 q 158 809 187 848 q 130 719 129 769 q 147 656 131 683 q 187 611 163 629 q 254 578 211 593 q 333 555 297 563 q 427 536 369 547 q 676 468 609 501 q 809 256 809 402 q 752 110 809 170 q 618 25 694 50 q 455 -4 543 0 l 455 -138 l 394 -138 l 394 -4 q 175 47 276 0 q 27 186 75 94 l 94 219 q 228 104 134 141 q 425 68 322 68 q 525 77 475 68 q 624 107 575 87 q 704 166 673 127 q 734 258 734 205 q 723 321 734 293 q 686 370 712 350 q 636 405 661 391 q 568 431 612 419 q 495 450 523 444 q 415 466 468 456 q 338 481 363 476 q 268 499 313 487 q 199 522 222 511 q 144 552 176 533 q 97 593 112 572 q 69 647 81 615 q 55 716 56 679 q 84 832 54 782 q 165 913 113 883 q 274 959 216 943 q 394 979 331 976 l 394 1118 "},"\\":{"x_min":-5.5625,"x_max":586.15625,"ha":606,"o":"m 586 -113 l 513 -113 l -5 1054 l 68 1054 l 586 -113 "},"Ì":{"x_min":-23.609375,"x_max":170.84375,"ha":289,"o":"m 163 0 l 90 0 l 90 972 l 163 972 l 163 0 m 170 1080 l 104 1080 l -23 1251 l -23 1252 l 66 1252 l 170 1086 l 170 1080 "},"µ":{"x_min":112.515625,"x_max":730.609375,"ha":879,"o":"m 668 97 q 517 -15 620 13 q 315 -12 413 -45 q 183 101 216 20 l 183 -313 l 112 -313 l 112 682 l 180 682 l 180 268 q 229 117 180 180 q 350 38 279 54 q 493 36 422 22 q 613 117 563 50 q 662 287 662 184 l 662 682 l 730 682 l 730 0 l 672 0 l 668 97 "},"Ç":{"x_min":37.46875,"x_max":891.734375,"ha":935,"o":"m 475 -133 l 466 -126 l 495 -9 q 159 143 279 4 q 37 480 38 281 q 90 726 36 613 q 261 911 144 838 q 537 983 377 983 q 891 837 745 983 l 840 793 q 537 916 716 916 q 220 792 333 916 q 109 483 108 668 q 224 180 112 302 q 537 58 336 58 q 841 181 715 58 l 891 134 q 548 -11 750 -6 l 531 -84 q 644 -124 611 -80 q 663 -225 677 -168 q 610 -299 651 -273 q 519 -325 569 -325 q 434 -305 475 -325 q 375 -250 394 -286 l 415 -211 q 519 -265 452 -265 q 607 -212 593 -265 q 583 -144 619 -170 q 475 -133 547 -118 "},"’":{"x_min":56.953125,"x_max":208.34375,"ha":278,"o":"m 118 712 l 56 712 l 129 973 l 208 973 l 118 712 "},"-":{"x_min":80.5625,"x_max":566.71875,"ha":664,"o":"m 80 401 l 80 473 l 566 473 l 566 401 l 80 401 "},"Q":{"x_min":45.78125,"x_max":1037.578125,"ha":1085,"o":"m 537 984 q 900 841 772 984 q 1027 486 1029 697 q 913 154 1027 293 l 1037 34 l 990 -13 l 868 102 q 537 -9 740 -9 q 172 135 301 -9 q 45 494 43 280 q 177 843 48 701 q 537 984 305 984 m 537 913 q 236 794 354 913 q 119 494 119 675 q 226 186 116 311 q 537 61 336 61 q 845 184 736 61 q 954 486 954 306 q 845 791 954 668 q 537 913 736 913 "},"M":{"x_min":90.28125,"x_max":1011.1875,"ha":1136,"o":"m 937 0 l 937 863 l 565 294 l 540 294 l 165 863 l 165 0 l 90 0 l 90 972 l 179 972 l 551 405 l 919 972 l 1011 972 l 1011 0 l 937 0 "},"C":{"x_min":37.46875,"x_max":891.734375,"ha":935,"o":"m 841 181 l 891 134 q 537 -11 745 -11 q 170 130 302 -11 q 37 480 38 272 q 90 726 36 613 q 261 911 144 838 q 537 983 377 983 q 891 837 745 983 l 840 793 q 537 916 716 916 q 220 792 333 916 q 109 483 108 668 q 224 180 112 302 q 537 58 336 58 q 841 181 715 58 "},"œ":{"x_min":69.453125,"x_max":1368.21875,"ha":1499,"o":"m 1032 -9 q 844 45 926 -9 q 726 193 762 101 q 607 43 688 95 q 418 -9 526 -9 q 169 86 269 -9 q 69 341 69 181 q 169 600 69 501 q 418 698 269 698 q 607 643 526 698 q 726 488 688 587 q 845 639 763 581 q 1032 697 927 697 q 1286 599 1188 697 q 1365 311 1383 501 q 757 309 962 311 q 844 125 766 193 q 1032 56 922 56 q 1169 84 1102 56 q 1273 161 1236 112 l 1322 122 q 1195 24 1273 58 q 1032 -9 1116 -9 m 418 56 q 617 134 537 56 q 697 341 697 211 q 617 553 697 472 q 418 634 537 634 q 217 553 298 634 q 136 341 136 472 q 216 134 136 212 q 418 56 297 56 m 757 370 l 1304 370 q 1229 565 1302 495 q 1032 634 1157 634 q 845 563 922 634 q 757 370 768 493 "},"!":{"x_min":66.671875,"x_max":176.40625,"ha":271,"o":"m 83 972 l 154 972 l 154 195 l 83 195 l 83 972 m 84 9 q 66 48 66 23 q 84 88 66 73 q 121 102 101 102 q 159 88 141 102 q 176 48 176 73 q 159 9 176 23 q 121 -5 141 -5 q 84 9 101 -5 "},"ç":{"x_min":36.109375,"x_max":638.9375,"ha":701,"o":"m 316 -122 l 308 -115 l 333 -2 q 120 106 204 13 q 36 343 36 200 q 136 597 36 502 q 388 693 236 693 q 638 590 533 693 l 594 547 q 388 629 512 629 q 184 552 266 629 q 102 343 102 476 q 184 133 102 209 q 388 56 266 56 q 593 141 508 56 l 638 95 q 388 -6 536 -6 l 387 -6 l 372 -73 q 484 -113 451 -69 q 502 -213 516 -156 q 450 -286 490 -262 q 359 -311 409 -311 q 216 -237 256 -311 l 255 -200 q 359 -254 293 -254 q 447 -201 433 -254 q 424 -133 459 -159 q 316 -122 388 -106 "},"È":{"x_min":88.890625,"x_max":776.453125,"ha":853,"o":"m 162 901 l 162 523 l 732 523 l 732 455 l 162 455 l 162 72 l 776 72 l 776 0 l 88 0 l 88 972 l 759 972 l 759 901 l 162 901 m 506 1084 l 440 1084 l 312 1255 l 312 1257 l 402 1257 l 506 1090 l 506 1084 "},"ﬁ":{"x_min":6.9375,"x_max":559.765625,"ha":667,"o":"m 213 686 l 559 686 l 559 0 l 491 0 l 491 626 l 213 626 l 213 0 l 147 0 l 147 626 l 6 626 l 6 686 l 147 686 l 147 741 q 216 921 147 855 q 382 986 286 987 q 558 920 479 984 l 527 869 q 436 911 488 898 q 333 915 383 923 q 248 862 283 907 q 213 741 213 818 l 213 686 "},"{":{"x_min":44.453125,"x_max":365.3125,"ha":443,"o":"m 365 -98 l 365 -151 q 197 -127 240 -169 q 154 37 154 -84 l 154 241 q 44 405 154 405 l 44 459 q 154 623 154 459 l 154 811 q 200 977 154 932 q 365 1001 247 1023 l 365 954 q 245 937 276 968 q 215 811 215 907 l 215 623 q 213 577 215 595 q 206 531 212 558 q 191 488 201 505 q 162 456 181 472 q 115 433 143 440 q 170 404 148 425 q 201 354 193 384 q 212 300 209 325 q 215 241 215 276 l 215 37 q 245 -85 215 -56 q 365 -98 276 -113 "},"X":{"x_min":41.671875,"x_max":847.296875,"ha":897,"o":"m 444 555 l 740 970 l 820 970 l 820 969 l 490 498 l 847 1 l 847 0 l 758 0 l 444 444 l 130 0 l 41 0 l 41 1 l 398 498 l 68 969 l 68 970 l 150 970 l 444 555 "},"ô":{"x_min":44.453125,"x_max":741.71875,"ha":822,"o":"m 144 86 q 393 -9 244 -9 q 641 86 541 -9 q 741 341 741 181 q 641 600 741 501 q 393 698 541 698 q 144 600 244 698 q 44 341 44 501 q 144 86 44 181 m 594 134 q 393 56 513 56 q 191 134 272 56 q 111 341 111 212 q 192 553 111 472 q 393 634 273 634 q 593 553 512 634 q 675 341 675 472 q 594 134 675 212 m 177 804 l 375 987 l 430 987 l 627 804 l 627 794 l 554 794 l 402 927 l 251 794 l 177 794 l 177 804 "},"¼":{"x_min":90.28125,"x_max":954.25,"ha":1078,"o":"m 805 494 l 895 494 l 895 170 l 954 170 l 954 109 l 895 109 l 895 1 l 833 1 l 833 109 l 566 109 l 562 161 l 805 494 m 640 170 l 833 170 l 833 433 l 640 170 m 275 -9 l 201 -9 l 719 982 l 794 982 l 275 -9 m 93 484 l 93 543 l 166 543 l 166 913 l 90 913 l 90 972 l 233 972 l 233 543 l 304 543 l 304 484 l 93 484 "},"#":{"x_min":40.28125,"x_max":811.171875,"ha":854,"o":"m 334 972 l 398 972 l 341 738 l 620 738 l 679 972 l 743 972 l 684 738 l 811 738 l 811 686 l 672 686 l 572 293 l 704 293 l 704 237 l 559 237 l 501 0 l 437 0 l 495 237 l 216 237 l 158 0 l 94 0 l 152 237 l 40 237 l 40 293 l 163 293 l 265 686 l 147 686 l 147 738 l 277 738 l 334 972 m 608 686 l 329 686 l 227 293 l 508 293 l 608 686 "},"Ê":{"x_min":88.890625,"x_max":776.453125,"ha":853,"o":"m 162 523 l 162 901 l 759 901 l 759 972 l 88 972 l 88 0 l 776 0 l 776 72 l 162 72 l 162 455 l 732 455 l 732 523 l 162 523 m 212 1083 l 409 1266 l 465 1266 l 662 1083 l 662 1073 l 588 1073 l 437 1207 l 286 1073 l 212 1073 l 212 1083 "},")":{"x_min":25,"x_max":368.078125,"ha":485,"o":"m 25 1011 l 61 1063 q 288 797 208 968 q 368 450 368 627 q 288 102 368 272 q 61 -163 208 -68 l 25 -109 q 227 143 158 -12 q 295 459 297 300 q 222 770 293 618 q 25 1011 152 922 "},"Å":{"x_min":-11.109375,"x_max":943.125,"ha":964,"o":"m 322 1094 q 365 1192 322 1157 q 468 1227 408 1227 q 572 1192 527 1227 q 616 1094 616 1157 q 588 1007 616 1043 q 511 961 559 972 l 943 0 l 862 0 l 755 238 l 175 238 l 69 0 l -11 0 l 420 962 q 322 1094 322 987 m 204 308 l 726 308 l 465 900 l 204 308 m 466 1175 q 393 1133 415 1175 q 393 1050 372 1091 q 466 1009 415 1009 q 543 1050 520 1009 q 543 1133 565 1091 q 466 1175 520 1175 "},"ø":{"x_min":44.453125,"x_max":741.71875,"ha":822,"o":"m 393 -9 q 240 20 306 -9 l 183 -75 l 113 -75 l 188 50 q 44 341 44 145 q 144 600 44 501 q 393 698 244 698 q 554 662 479 698 l 605 748 l 676 748 l 605 630 q 741 341 741 529 q 641 86 741 181 q 393 -9 541 -9 m 393 634 q 192 553 273 634 q 111 341 111 472 q 223 108 111 186 l 519 605 q 393 634 458 634 m 393 56 q 594 134 513 56 q 675 341 675 212 q 570 573 675 490 l 276 79 q 393 56 326 56 "},"â":{"x_min":38.890625,"x_max":736.171875,"ha":845,"o":"m 736 686 l 668 686 l 668 536 q 550 654 626 613 q 387 694 475 694 q 139 595 240 694 q 38 343 38 497 q 140 88 38 188 q 387 -11 241 -11 q 668 145 570 -11 l 668 0 l 736 0 l 736 686 m 387 629 q 527 597 466 629 q 620 515 588 565 q 668 403 652 465 q 668 280 683 341 q 620 169 652 219 q 527 87 588 119 q 387 55 466 55 q 187 136 268 55 q 106 343 106 216 q 187 549 106 469 q 387 629 268 629 m 176 793 l 373 976 l 429 976 l 626 793 l 626 783 l 552 783 l 401 916 l 250 783 l 176 783 l 176 793 "},"}":{"x_min":25,"x_max":345.859375,"ha":414,"o":"m 25 -151 l 25 -98 q 144 -85 113 -113 q 175 37 175 -56 l 175 241 q 177 300 175 276 q 188 354 180 325 q 219 404 197 384 q 275 433 241 425 q 227 456 247 440 q 198 488 208 472 q 183 531 188 505 q 176 577 177 558 q 175 623 175 595 l 175 811 q 144 937 175 907 q 25 954 113 968 l 25 1001 q 189 977 143 1023 q 236 811 236 932 l 236 623 q 345 459 236 459 l 345 405 q 236 241 236 405 l 236 37 q 193 -127 236 -84 q 25 -151 150 -169 "},"‰":{"x_min":29.171875,"x_max":1430.671875,"ha":1514,"o":"m 823 976 l 747 975 l 127 0 l 205 0 l 823 976 m 240 979 q 357 948 308 979 q 429 872 406 918 q 452 774 452 827 q 429 675 452 720 q 357 600 406 630 q 240 569 308 569 q 123 600 173 569 q 51 675 73 630 q 29 774 29 720 q 51 872 29 827 q 123 948 73 918 q 240 979 173 979 m 713 401 q 831 370 782 401 q 903 295 880 340 q 926 196 926 250 q 903 97 926 143 q 831 22 880 52 q 713 -8 782 -8 q 597 22 647 -8 q 525 97 547 52 q 502 196 502 143 q 525 295 502 250 q 597 370 547 340 q 713 401 647 401 m 808 313 q 713 344 769 344 q 619 313 658 344 q 572 240 580 283 q 572 154 563 197 q 620 80 581 111 q 715 50 659 50 q 809 80 770 50 q 857 154 848 111 q 856 240 865 197 q 808 313 847 283 m 240 919 q 145 889 183 919 q 97 817 106 859 q 97 732 88 775 q 145 660 106 690 q 241 630 184 630 q 334 660 297 630 q 381 732 372 690 q 381 817 390 775 q 334 889 372 859 q 240 919 295 919 m 1218 401 q 1335 370 1286 401 q 1407 295 1384 340 q 1430 196 1430 250 q 1407 97 1430 143 q 1335 22 1384 52 q 1218 -8 1286 -8 q 1101 22 1151 -8 q 1029 97 1051 52 q 1007 196 1007 143 q 1029 295 1007 250 q 1101 370 1051 340 q 1218 401 1151 401 m 1312 313 q 1218 344 1273 344 q 1123 313 1162 344 q 1076 240 1084 283 q 1077 154 1068 197 q 1125 80 1086 111 q 1219 50 1163 50 q 1314 80 1275 50 q 1361 154 1352 111 q 1360 240 1369 197 q 1312 313 1351 283 "},"Ä":{"x_min":-11.109375,"x_max":943.125,"ha":964,"o":"m 862 0 l 943 0 l 506 972 l 425 972 l -11 0 l 69 0 l 175 238 l 755 238 l 862 0 m 726 308 l 204 308 l 465 900 l 726 308 m 281 1086 q 263 1126 263 1101 q 281 1166 263 1151 q 318 1180 298 1180 q 356 1166 338 1180 q 373 1126 373 1151 q 356 1086 373 1101 q 318 1072 338 1072 q 281 1086 298 1072 m 578 1086 q 561 1126 561 1101 q 578 1166 561 1151 q 616 1180 595 1180 q 653 1166 636 1180 q 670 1126 670 1151 q 653 1086 670 1101 q 616 1072 636 1072 q 578 1086 595 1072 "},"¸":{"x_min":30.5625,"x_max":320.828125,"ha":411,"o":"m 130 -98 l 122 -91 l 150 30 l 204 30 l 186 -50 q 297 -89 265 -45 q 316 -190 330 -133 q 263 -263 304 -238 q 173 -287 223 -287 q 30 -213 70 -287 l 69 -176 q 173 -230 106 -230 q 261 -177 247 -230 q 238 -109 273 -136 q 130 -98 202 -83 "},"a":{"x_min":38.890625,"x_max":736.171875,"ha":845,"o":"m 668 686 l 736 686 l 736 0 l 668 0 l 668 145 q 387 -11 570 -11 q 140 88 241 -11 q 38 343 38 188 q 139 595 38 497 q 387 694 240 694 q 550 654 475 694 q 668 536 626 613 l 668 686 m 387 629 q 187 549 268 629 q 106 343 106 469 q 187 136 106 216 q 387 55 268 55 q 527 87 466 55 q 620 169 588 119 q 668 280 652 219 q 668 403 683 341 q 620 515 652 465 q 527 597 588 565 q 387 629 466 629 "},"—":{"x_min":54.171875,"x_max":822.28125,"ha":908,"o":"m 54 388 l 54 459 l 822 459 l 822 388 l 54 388 "},"=":{"x_min":73.609375,"x_max":583.375,"ha":683,"o":"m 73 287 l 73 355 l 583 355 l 583 287 l 73 287 m 73 530 l 73 600 l 583 600 l 583 530 l 73 530 "},"N":{"x_min":90.28125,"x_max":850.0625,"ha":978,"o":"m 90 972 l 122 972 l 776 168 l 776 972 l 850 972 l 850 0 l 820 0 l 165 802 l 165 0 l 90 0 l 90 972 "},"˚":{"x_min":102.78125,"x_max":397.25,"ha":551,"o":"m 102 863 q 145 961 102 926 q 248 997 188 997 q 352 961 308 997 q 397 863 397 926 q 354 763 397 800 q 247 726 312 726 q 141 763 180 726 q 102 863 102 800 m 247 944 q 174 904 195 944 q 174 823 152 863 q 247 783 195 783 q 323 823 301 783 q 323 904 345 863 q 247 944 301 944 "},"ú":{"x_min":75,"x_max":695.890625,"ha":799,"o":"m 629 0 l 695 0 l 695 687 l 627 687 l 627 305 q 560 127 627 198 q 387 55 493 56 q 208 115 273 54 q 143 293 143 177 l 143 687 l 75 687 l 75 291 q 160 70 75 151 q 384 -11 245 -11 q 629 123 555 -8 l 629 0 m 409 801 l 343 801 l 343 807 l 447 973 l 537 973 l 537 972 l 409 801 "},"⁄":{"x_min":-86.125,"x_max":402.8125,"ha":289,"o":"m 336 1020 l 402 1020 l -18 -75 l -86 -75 l 336 1020 "},"2":{"x_min":58.34375,"x_max":811.171875,"ha":918,"o":"m 137 713 l 63 713 q 96 842 63 787 q 184 927 129 897 q 302 970 240 957 q 436 984 365 984 q 613 959 533 984 q 752 866 694 933 q 811 701 811 800 q 752 541 811 607 q 611 449 693 476 q 438 422 530 422 q 131 220 131 419 l 131 72 l 801 72 l 801 0 l 58 0 l 58 219 q 90 352 58 297 q 180 436 123 406 q 300 477 237 465 q 436 490 362 490 q 537 500 487 490 q 635 534 587 511 q 712 600 683 556 q 741 701 741 643 q 713 807 741 762 q 638 875 684 851 q 541 909 591 898 q 436 919 490 919 q 334 909 383 919 q 238 877 284 900 q 165 813 193 855 q 137 713 137 770 "},"ü":{"x_min":75,"x_max":695.890625,"ha":799,"o":"m 629 0 l 695 0 l 695 687 l 627 687 l 627 305 q 560 127 627 198 q 387 55 493 56 q 208 115 273 54 q 143 293 143 177 l 143 687 l 75 687 l 75 291 q 160 70 75 151 q 384 -11 245 -11 q 629 123 555 -8 l 629 0 m 211 878 q 194 918 194 893 q 211 957 194 943 q 249 972 229 972 q 286 957 269 972 q 304 918 304 943 q 286 878 304 893 q 249 863 269 863 q 211 878 229 863 m 509 878 q 491 918 491 893 q 509 957 491 943 q 546 972 526 972 q 584 957 566 972 q 601 918 601 943 q 584 878 601 893 q 546 863 566 863 q 509 878 526 863 "},"Z":{"x_min":18.0625,"x_max":755.609375,"ha":803,"o":"m 51 902 l 51 972 l 755 972 l 755 945 l 129 73 l 755 73 l 755 0 l 18 0 l 18 31 l 636 902 l 51 902 "},"u":{"x_min":75,"x_max":695.890625,"ha":799,"o":"m 695 0 l 629 0 l 629 123 q 384 -11 555 -8 q 160 70 245 -11 q 75 291 75 151 l 75 687 l 143 687 l 143 293 q 208 115 143 177 q 387 55 273 54 q 560 127 493 56 q 627 305 627 198 l 627 687 l 695 687 l 695 0 "},"˜":{"x_min":43.0625,"x_max":387.53125,"ha":451,"o":"m 90 872 l 43 887 q 99 971 50 948 q 198 968 148 994 l 255 937 q 306 932 280 923 q 340 973 331 940 l 387 958 q 331 872 381 895 q 231 877 281 850 l 175 908 q 124 913 150 922 q 90 872 98 904 "},"Ó":{"x_min":47.21875,"x_max":1027.875,"ha":1117,"o":"m 537 987 q 266 916 380 987 q 100 733 152 844 q 47 487 47 622 q 78 300 47 388 q 169 139 109 211 q 324 25 229 68 q 537 -16 419 -16 q 750 25 655 -16 q 904 138 845 68 q 995 298 963 209 q 1027 484 1027 387 q 900 841 1029 694 q 537 987 770 987 m 537 918 q 845 792 736 918 q 955 486 955 666 q 910 276 955 372 q 768 116 865 180 q 537 52 670 52 q 231 180 341 52 q 120 486 122 308 q 228 793 119 669 q 537 918 337 918 m 565 1087 l 498 1087 l 498 1093 l 602 1259 l 693 1259 l 693 1258 l 565 1087 "},"k":{"x_min":76.390625,"x_max":597.265625,"ha":608,"o":"m 76 972 l 143 972 l 143 386 l 466 686 l 556 686 l 556 683 l 209 362 l 597 4 l 597 0 l 511 0 l 143 336 l 143 0 l 76 0 l 76 972 "},"ˇ":{"x_min":50,"x_max":500.046875,"ha":561,"o":"m 500 963 l 302 780 l 247 780 l 50 963 l 50 973 l 123 973 l 275 840 l 426 973 l 500 973 l 500 963 "},"Ù":{"x_min":88.890625,"x_max":833.40625,"ha":949,"o":"m 759 972 l 833 972 l 833 368 q 778 157 833 247 q 640 27 723 68 q 461 -12 556 -12 q 281 27 365 -12 q 143 156 198 68 q 88 368 88 245 l 88 972 l 162 972 l 162 368 q 188 231 162 293 q 255 133 213 170 q 351 75 297 95 q 461 54 405 54 q 570 75 516 54 q 666 133 625 95 q 734 231 708 170 q 759 368 759 293 l 759 972 m 520 1075 l 454 1075 l 326 1245 l 326 1247 l 416 1247 l 520 1080 l 520 1075 "},"Ÿ":{"x_min":5.5625,"x_max":840.34375,"ha":888,"o":"m 384 388 l 384 0 l 459 0 l 459 388 l 840 970 l 840 972 l 752 972 l 422 461 l 93 972 l 5 972 l 5 970 l 384 388 m 235 1079 q 218 1119 218 1094 q 235 1159 218 1144 q 272 1173 252 1173 q 310 1159 293 1173 q 327 1119 327 1144 q 310 1079 327 1094 q 272 1065 293 1065 q 235 1079 252 1065 m 532 1079 q 515 1119 515 1094 q 532 1159 515 1144 q 570 1173 550 1173 q 607 1159 590 1173 q 625 1119 625 1144 q 607 1079 625 1094 q 570 1065 590 1065 q 532 1079 550 1065 "},"€":{"x_min":16.671875,"x_max":751.453125,"ha":814,"o":"m 732 86 l 751 19 q 579 -11 663 -11 q 105 377 176 -11 l 16 377 l 16 441 l 97 441 q 95 480 95 451 q 97 523 95 509 l 16 523 l 16 587 l 105 587 q 251 873 129 763 q 579 983 373 983 q 716 962 643 983 l 701 902 q 579 919 641 919 q 180 587 234 919 l 559 587 l 541 523 l 170 523 q 169 483 169 511 q 170 441 169 451 l 522 441 l 508 377 l 180 377 q 304 140 204 222 q 579 58 404 58 q 732 86 657 58 "},"¢":{"x_min":81.953125,"x_max":686.171875,"ha":799,"o":"m 469 -19 l 469 -118 l 402 -118 l 402 -19 q 172 84 262 -6 q 81 329 81 176 q 172 570 81 476 q 402 677 262 665 l 402 761 l 469 761 l 469 677 q 686 576 595 663 l 638 533 q 436 616 554 616 q 230 541 312 616 q 148 329 148 465 q 229 116 148 190 q 436 43 311 43 q 638 129 550 43 l 686 80 q 469 -19 594 -8 "},"ß":{"x_min":79.171875,"x_max":726.453125,"ha":815,"o":"m 245 495 l 245 556 l 358 556 q 437 564 400 556 q 512 591 475 572 q 572 647 550 609 q 595 737 595 684 q 369 925 595 925 q 201 870 252 925 q 145 718 150 815 l 145 0 l 79 0 l 79 719 q 160 919 79 851 q 366 987 241 987 q 579 925 497 987 q 662 737 662 863 q 620 606 662 662 q 506 533 577 551 q 726 254 726 487 q 680 87 726 154 q 562 -2 634 20 q 407 -20 490 -25 q 245 16 325 -15 l 245 80 q 442 38 350 36 q 597 97 534 40 q 661 252 661 155 q 363 495 661 495 l 245 495 "},"é":{"x_min":37.5,"x_max":727.84375,"ha":825,"o":"m 386 -9 q 552 24 472 -9 q 682 122 633 58 l 633 161 q 526 84 595 112 q 386 56 456 56 q 196 125 276 56 q 106 311 116 194 l 725 311 q 643 598 743 500 q 386 697 544 697 q 138 596 240 697 q 37 343 37 495 q 137 86 37 183 q 386 -9 237 -9 m 106 370 q 197 563 118 493 q 386 634 276 634 q 587 565 512 634 q 663 370 662 495 l 106 370 m 405 801 l 338 801 l 338 807 l 443 973 l 533 973 l 533 972 l 405 801 "},"s":{"x_min":36.109375,"x_max":618.28125,"ha":693,"o":"m 588 605 l 547 561 q 333 633 465 633 q 185 602 245 634 q 126 506 125 569 q 135 467 126 484 q 163 436 144 450 q 197 416 183 423 q 244 400 212 408 q 288 390 276 393 q 334 381 300 387 q 526 331 476 358 q 618 180 622 284 q 569 64 616 109 q 463 4 522 19 q 336 -11 404 -11 q 160 24 241 -11 q 36 126 79 59 l 86 170 q 195 83 126 112 q 337 54 263 54 q 430 63 387 54 q 511 103 473 72 q 551 184 550 134 q 538 235 552 213 q 507 270 525 256 q 454 293 490 283 q 395 309 419 304 q 327 320 372 313 q 247 335 276 329 q 177 355 218 341 q 115 387 137 369 q 77 435 94 405 q 61 505 61 465 q 139 649 59 600 q 333 697 219 698 q 588 605 491 697 "},"B":{"x_min":90.28125,"x_max":841.734375,"ha":932,"o":"m 165 461 l 165 72 l 488 72 q 768 255 768 72 q 688 411 766 361 q 498 461 609 461 l 165 461 m 165 908 l 165 531 l 498 531 q 613 545 563 531 q 700 600 663 559 q 737 707 737 641 q 663 857 737 805 q 488 908 590 908 l 165 908 m 488 972 q 716 904 623 972 q 808 707 808 837 q 766 577 808 632 q 650 498 723 522 q 791 406 740 473 q 841 254 841 340 q 811 130 841 181 q 727 51 780 79 q 615 11 673 23 q 488 0 556 0 l 90 0 l 90 972 l 488 972 "},"…":{"x_min":50,"x_max":637.546875,"ha":736,"o":"m 67 2 q 50 41 50 16 q 67 81 50 66 q 104 95 84 95 q 142 81 125 95 q 159 41 159 66 q 142 2 159 16 q 104 -12 125 -12 q 67 2 84 -12 m 307 2 q 290 41 290 16 q 307 81 290 66 q 345 95 325 95 q 382 81 365 95 q 400 41 400 66 q 382 2 400 16 q 345 -12 365 -12 q 307 2 325 -12 m 545 2 q 527 41 527 16 q 545 81 527 66 q 582 95 562 95 q 620 81 602 95 q 637 41 637 66 q 620 2 637 16 q 582 -12 602 -12 q 545 2 562 -12 "},"?":{"x_min":45.84375,"x_max":793.125,"ha":899,"o":"m 118 705 l 45 705 q 68 816 45 766 q 126 896 90 865 q 211 949 162 927 q 312 979 261 970 q 418 988 363 988 q 525 980 475 988 q 626 952 576 972 q 712 900 676 932 q 770 818 748 869 q 793 704 793 768 q 775 588 793 637 q 724 511 758 540 q 661 469 690 483 q 591 443 633 455 q 453 368 481 409 q 425 195 425 326 l 354 195 q 400 404 354 338 q 573 506 445 469 q 684 568 645 527 q 722 704 722 609 q 694 814 722 769 q 618 882 666 859 q 522 913 570 904 q 418 922 475 922 q 316 912 365 922 q 221 879 268 902 q 146 811 175 857 q 118 705 118 766 m 368 1 q 341 50 341 15 q 368 98 341 84 q 422 98 395 112 q 450 50 450 84 q 422 1 450 15 q 368 1 395 -12 "},"H":{"x_min":90.28125,"x_max":859.796875,"ha":985,"o":"m 859 0 l 784 0 l 784 441 l 165 441 l 165 0 l 90 0 l 90 972 l 165 972 l 165 509 l 784 509 l 784 972 l 859 972 l 859 0 "},"î":{"x_min":-41.671875,"x_max":266.6875,"ha":267,"o":"m -41 807 l 94 973 l 137 973 l 266 807 l 266 797 l 208 797 l 115 913 l 18 797 l -41 797 l -41 807 m 144 688 l 76 688 l 76 0 l 144 0 l 144 688 "},"c":{"x_min":36.109375,"x_max":638.9375,"ha":701,"o":"m 593 141 l 638 95 q 388 -6 536 -6 q 137 88 238 -6 q 36 343 36 184 q 136 597 36 502 q 388 693 236 693 q 638 590 533 693 l 594 547 q 388 629 512 629 q 184 552 266 629 q 102 343 102 476 q 184 133 102 209 q 388 56 266 56 q 593 141 508 56 "},"¶":{"x_min":60.21875,"x_max":1054.25,"ha":1126,"o":"m 468 909 l 468 -300 l 400 -300 l 400 270 q 232 309 305 270 q 122 409 159 348 q 68 545 84 470 q 70 695 51 620 q 127 832 88 770 q 239 932 166 893 q 405 970 312 970 l 1054 970 l 1054 909 l 907 909 l 907 -300 l 841 -300 l 841 909 l 468 909 "},"−":{"x_min":56.953125,"x_max":577.828125,"ha":692,"o":"m 56 434 l 56 505 l 577 505 l 577 434 l 56 434 "},"•":{"x_min":68.0625,"x_max":337.53125,"ha":458,"o":"m 204 351 q 106 388 144 351 q 68 484 68 425 q 106 581 68 544 q 204 618 144 618 q 299 581 261 618 q 337 484 337 544 q 299 388 337 425 q 204 351 261 351 "},"¥":{"x_min":5.5625,"x_max":840.34375,"ha":871,"o":"m 170 231 l 170 288 l 384 288 l 384 376 l 170 376 l 170 433 l 355 433 l 5 970 l 5 972 l 90 972 l 422 461 l 755 972 l 840 972 l 840 970 l 487 433 l 680 433 l 680 376 l 458 376 l 458 288 l 680 288 l 680 231 l 458 231 l 458 0 l 384 0 l 384 231 l 170 231 "},"(":{"x_min":120.84375,"x_max":463.921875,"ha":535,"o":"m 427 1063 l 463 1011 q 265 770 336 922 q 193 459 195 618 q 261 143 191 300 q 463 -109 330 -12 l 427 -163 q 200 102 280 -68 q 120 450 120 272 q 200 797 120 627 q 427 1063 280 968 "},"U":{"x_min":88.890625,"x_max":833.40625,"ha":949,"o":"m 759 972 l 833 972 l 833 368 q 778 157 833 247 q 640 27 723 68 q 461 -12 556 -12 q 281 27 365 -12 q 143 156 198 68 q 88 368 88 245 l 88 972 l 162 972 l 162 368 q 188 231 162 293 q 255 133 213 170 q 351 75 297 95 q 461 54 405 54 q 570 75 516 54 q 666 133 625 95 q 734 231 708 170 q 759 368 759 293 l 759 972 "},"Ñ":{"x_min":90.28125,"x_max":850.0625,"ha":978,"o":"m 90 972 l 122 972 l 776 168 l 776 972 l 850 972 l 850 0 l 820 0 l 165 802 l 165 0 l 90 0 l 90 972 m 368 1086 l 320 1101 q 377 1185 327 1162 q 476 1182 426 1208 l 533 1151 q 584 1145 558 1137 q 618 1187 609 1154 l 665 1172 q 609 1086 659 1109 q 509 1091 559 1063 l 452 1122 q 402 1127 427 1136 q 368 1086 376 1118 "},"F":{"x_min":88.890625,"x_max":743.109375,"ha":820,"o":"m 163 897 l 163 509 l 723 509 l 723 438 l 163 438 l 163 -1 l 88 -1 l 88 972 l 743 972 l 743 897 l 163 897 "},":":{"x_min":72.234375,"x_max":181.953125,"ha":292,"o":"m 89 2 q 72 41 72 16 q 89 81 72 66 q 127 95 106 95 q 164 81 147 95 q 181 41 181 66 q 164 2 181 16 q 127 -12 147 -12 q 89 2 106 -12 m 89 418 q 72 458 72 433 q 89 497 72 483 q 127 512 106 512 q 164 497 147 512 q 181 458 181 483 q 164 418 181 433 q 127 404 147 404 q 89 418 106 404 "},"Û":{"x_min":88.890625,"x_max":833.40625,"ha":949,"o":"m 833 972 l 759 972 l 759 368 q 734 231 759 293 q 666 133 708 170 q 570 75 625 95 q 461 54 516 54 q 351 75 405 54 q 255 133 297 95 q 188 231 213 170 q 162 368 162 293 l 162 972 l 88 972 l 88 368 q 143 156 88 245 q 281 27 198 68 q 461 -12 365 -12 q 640 27 556 -12 q 778 157 723 68 q 833 368 833 247 l 833 972 m 236 1076 l 433 1259 l 488 1259 l 686 1076 l 686 1066 l 612 1066 l 461 1200 l 309 1066 l 236 1066 l 236 1076 "},"*":{"x_min":40.28125,"x_max":350.03125,"ha":408,"o":"m 261 684 l 190 786 l 116 684 l 70 716 l 150 815 l 40 847 l 55 897 l 165 861 l 162 973 l 219 973 l 216 861 l 334 895 l 350 845 l 230 815 l 306 718 l 261 684 "},"†":{"x_min":30.5625,"x_max":698.671875,"ha":770,"o":"m 698 698 l 698 633 l 398 633 l 398 -183 l 330 -183 l 330 633 l 30 633 l 30 698 l 330 698 l 330 972 l 398 972 l 398 698 l 698 698 "},"°":{"x_min":79.171875,"x_max":375.03125,"ha":492,"o":"m 336 777 q 227 734 297 734 q 118 777 158 734 q 79 870 79 819 q 118 964 79 922 q 227 1007 158 1007 q 336 964 297 1007 q 375 870 375 922 q 336 777 375 819 m 227 788 q 300 830 279 788 q 300 913 320 872 q 227 954 279 954 q 152 913 176 954 q 150 830 129 872 q 227 788 172 788 "},"V":{"x_min":15.28125,"x_max":895.90625,"ha":936,"o":"m 815 972 l 895 972 l 495 -2 l 415 -2 l 15 972 l 95 972 l 455 83 l 815 972 "},"å":{"x_min":38.890625,"x_max":736.171875,"ha":845,"o":"m 668 686 l 736 686 l 736 0 l 668 0 l 668 145 q 387 -11 570 -11 q 140 88 241 -11 q 38 343 38 188 q 139 595 38 497 q 387 694 240 694 q 550 654 475 694 q 668 536 626 613 l 668 686 m 387 629 q 187 549 268 629 q 106 343 106 469 q 187 136 106 216 q 387 55 268 55 q 527 87 466 55 q 620 169 588 119 q 668 280 652 219 q 668 403 683 341 q 620 515 652 465 q 527 597 588 565 q 387 629 466 629 m 261 905 q 303 998 261 965 q 405 1032 345 1032 q 509 998 465 1032 q 554 905 554 965 q 511 809 554 844 q 404 775 469 775 q 299 809 337 775 q 261 905 261 844 m 404 982 q 331 943 352 982 q 331 867 311 905 q 404 829 352 829 q 480 867 458 829 q 480 943 502 905 q 404 982 458 982 "},"0":{"x_min":48.609375,"x_max":793.125,"ha":882,"o":"m 122 602 l 122 370 q 166 197 122 270 q 277 92 211 125 q 420 59 343 59 q 564 92 498 59 q 675 198 630 125 q 719 370 719 272 l 719 602 q 675 774 719 701 q 564 879 630 847 q 420 912 498 912 q 277 879 343 912 q 166 774 211 847 q 122 602 122 701 m 48 370 l 48 602 q 103 813 48 725 q 241 943 158 902 q 420 983 325 983 q 600 943 516 983 q 738 813 683 902 q 793 602 793 723 l 793 370 q 738 160 793 250 q 600 30 683 70 q 420 -9 516 -9 q 241 30 325 -9 q 103 159 158 70 q 48 370 48 248 "},"”":{"x_min":56.953125,"x_max":383.359375,"ha":465,"o":"m 118 712 l 56 712 l 129 973 l 208 973 l 118 712 m 293 712 l 231 712 l 304 973 l 383 973 l 293 712 "},"¾":{"x_min":75,"x_max":1009.796875,"ha":1108,"o":"m 861 494 l 951 494 l 951 170 l 1009 170 l 1009 109 l 951 109 l 951 1 l 888 1 l 888 109 l 622 109 l 618 161 l 861 494 m 695 170 l 888 170 l 888 433 l 695 170 m 338 -9 l 268 -9 l 802 982 l 876 982 l 338 -9 m 263 722 l 188 722 l 188 780 l 258 780 q 340 798 304 780 q 376 857 376 816 q 344 911 376 887 q 258 934 312 934 q 177 914 215 934 q 140 845 140 894 l 81 845 q 132 953 81 918 q 258 988 183 988 q 386 954 334 988 q 438 855 438 920 q 359 750 438 772 q 425 708 401 740 q 448 643 448 676 q 394 527 448 561 q 258 493 340 493 q 128 527 180 493 q 75 638 76 562 l 140 638 q 259 554 140 554 q 384 643 384 554 q 354 696 384 670 q 263 722 323 722 "},"@":{"x_min":73.609375,"x_max":1155.640625,"ha":1286,"o":"m 616 965 q 1009 822 862 965 q 1155 430 1155 679 q 1100 173 1155 284 q 1019 97 1070 115 q 928 112 968 80 q 888 211 888 144 l 888 209 q 766 105 840 143 q 608 68 691 68 q 361 170 463 68 q 259 416 259 272 q 359 668 259 572 q 608 765 459 765 q 770 725 694 765 q 888 612 847 686 l 888 730 l 950 730 l 950 212 q 966 164 950 177 q 1006 162 983 151 q 1044 201 1029 173 q 1090 430 1090 283 q 963 779 1090 657 q 616 901 837 901 q 273 768 402 901 q 144 426 144 634 q 272 90 144 218 q 616 -37 401 -37 q 829 19 715 -37 l 865 -33 q 616 -101 755 -101 q 220 46 368 -101 q 73 426 73 194 q 221 810 73 655 q 616 965 369 965 m 608 700 q 408 622 488 700 q 327 416 327 544 q 409 217 327 300 q 608 134 491 134 q 731 159 676 134 q 820 222 786 183 q 872 313 854 262 q 891 417 891 363 q 872 521 891 470 q 820 611 854 572 q 731 675 786 651 q 608 700 676 700 "},"ö":{"x_min":44.453125,"x_max":741.71875,"ha":822,"o":"m 144 86 q 393 -9 244 -9 q 641 86 541 -9 q 741 341 741 181 q 641 600 741 501 q 393 698 541 698 q 144 600 244 698 q 44 341 44 501 q 144 86 44 181 m 594 134 q 393 56 513 56 q 191 134 272 56 q 111 341 111 212 q 192 553 111 472 q 393 634 273 634 q 593 553 512 634 q 675 341 675 472 q 594 134 675 212 m 214 853 q 197 893 197 868 q 214 932 197 918 q 252 947 231 947 q 289 932 272 947 q 306 893 306 918 q 289 853 306 868 q 252 838 272 838 q 214 853 231 838 m 511 853 q 494 893 494 868 q 511 932 494 918 q 549 947 529 947 q 586 932 569 947 q 604 893 604 918 q 586 853 604 868 q 549 838 569 838 q 511 853 529 838 "},"i":{"x_min":56.953125,"x_max":166.6875,"ha":263,"o":"m 144 688 l 76 688 l 76 0 l 144 0 l 144 688 m 74 870 q 56 909 56 884 q 74 949 56 934 q 111 963 91 963 q 149 949 131 963 q 166 909 166 934 q 149 870 166 884 q 111 855 131 855 q 74 870 91 855 "},"Õ":{"x_min":47.21875,"x_max":1027.875,"ha":1117,"o":"m 537 987 q 900 841 770 987 q 1027 484 1029 694 q 995 298 1027 387 q 904 138 963 209 q 750 25 845 68 q 537 -16 655 -16 q 324 25 419 -16 q 169 139 229 68 q 78 300 109 211 q 47 487 47 388 q 100 733 47 622 q 266 916 152 844 q 537 987 380 987 m 537 918 q 228 793 337 918 q 120 486 119 669 q 231 180 122 308 q 537 52 341 52 q 768 116 670 52 q 910 276 865 180 q 955 486 955 372 q 845 792 955 666 q 537 918 736 918 m 412 1108 l 365 1123 q 421 1207 372 1184 q 520 1204 470 1230 l 577 1173 q 628 1168 602 1159 q 662 1209 654 1176 l 709 1194 q 654 1109 704 1132 q 554 1113 604 1086 l 497 1144 q 446 1149 472 1158 q 412 1108 420 1140 "},"þ":{"x_min":80.5625,"x_max":777.84375,"ha":864,"o":"m 145 -286 l 80 -286 l 80 970 l 144 970 l 145 523 q 266 649 187 602 q 444 695 345 695 q 684 596 590 690 q 777 343 777 502 q 679 81 777 176 q 429 -12 580 -12 q 263 31 338 -12 q 145 158 188 75 l 145 -286 m 429 52 q 630 128 551 52 q 709 343 709 204 q 630 556 709 481 q 429 630 551 630 q 230 549 309 630 q 151 341 151 468 q 231 134 151 216 q 429 52 311 52 "},"]":{"x_min":23.609375,"x_max":275.015625,"ha":422,"o":"m 275 1058 l 275 -166 l 23 -166 l 23 -100 l 202 -100 l 202 991 l 23 991 l 23 1058 l 275 1058 "},"m":{"x_min":76.390625,"x_max":1161.203125,"ha":1276,"o":"m 1161 0 l 1093 0 l 1093 411 q 1032 572 1093 509 q 873 636 970 636 q 714 571 776 636 q 652 406 652 506 l 652 0 l 584 0 l 584 406 q 522 570 584 506 q 363 634 461 634 q 205 570 266 634 q 144 406 144 506 l 144 0 l 76 0 l 76 686 l 140 686 l 141 572 q 365 700 208 700 q 521 658 451 700 q 619 530 591 616 q 720 655 650 611 q 873 700 790 700 q 1080 619 1000 700 q 1161 411 1161 538 l 1161 0 "},"8":{"x_min":47.21875,"x_max":848.671875,"ha":945,"o":"m 547 460 q 448 472 495 472 q 349 461 401 472 q 243 427 297 450 q 156 359 190 404 q 122 255 122 313 q 182 131 122 180 q 311 65 243 81 q 448 50 380 50 q 548 59 497 50 q 652 91 600 69 q 740 156 705 113 q 775 255 775 198 q 740 356 775 312 q 652 425 705 401 q 547 460 600 448 m 587 -6 q 448 -20 520 -20 q 309 -6 376 -20 q 181 38 243 8 q 84 124 120 68 q 47 255 47 180 q 111 416 47 350 q 266 501 175 481 q 63 726 63 563 q 99 852 63 798 q 193 936 134 907 q 316 979 252 965 q 448 993 380 993 q 579 979 516 993 q 702 938 643 966 q 797 854 761 909 q 833 726 833 800 q 775 584 833 640 q 622 498 716 527 q 781 413 713 479 q 848 255 848 347 q 811 124 848 180 q 714 38 775 68 q 587 -6 654 8 m 448 929 q 349 919 398 929 q 250 888 300 909 q 168 825 200 866 q 137 726 137 783 q 168 634 137 673 q 250 575 200 595 q 350 545 300 554 q 448 536 400 536 q 547 545 497 536 q 647 575 597 554 q 728 634 697 595 q 759 726 759 673 q 728 823 759 782 q 647 886 697 865 q 547 918 598 908 q 448 929 497 929 "},"ž":{"x_min":33.34375,"x_max":572.265625,"ha":657,"o":"m 55 686 l 55 625 l 470 625 l 33 23 l 33 0 l 572 0 l 572 63 l 138 63 l 572 659 l 572 686 l 55 686 m 541 962 l 355 790 l 304 790 l 118 962 l 118 972 l 187 972 l 329 845 l 472 972 l 541 972 l 541 962 "},"R":{"x_min":90.28125,"x_max":865.34375,"ha":901,"o":"m 522 372 l 865 0 l 766 0 l 430 368 l 165 368 l 165 0 l 90 0 l 90 972 l 518 972 q 752 882 668 972 q 837 669 836 793 q 756 457 838 543 q 522 372 673 372 m 165 902 l 165 438 l 509 438 q 693 501 632 438 q 755 670 754 563 q 694 833 757 763 q 518 902 632 902 l 165 902 "},"á":{"x_min":38.890625,"x_max":736.171875,"ha":845,"o":"m 736 686 l 668 686 l 668 536 q 550 654 626 613 q 387 694 475 694 q 139 595 240 694 q 38 343 38 497 q 140 88 38 188 q 387 -11 241 -11 q 668 145 570 -11 l 668 0 l 736 0 l 736 686 m 387 629 q 527 597 466 629 q 620 515 588 565 q 668 403 652 465 q 668 280 683 341 q 620 169 652 219 q 527 87 588 119 q 387 55 466 55 q 187 136 268 55 q 106 343 106 216 q 187 549 106 469 q 387 629 268 629 m 411 808 l 344 808 l 344 813 l 448 980 l 538 980 l 538 979 l 411 808 "},"×":{"x_min":52.78125,"x_max":490.3125,"ha":590,"o":"m 56 620 l 100 663 l 272 493 l 441 662 l 488 616 l 318 445 l 490 275 l 447 231 l 275 402 l 98 226 l 52 272 l 229 450 l 56 620 "},"o":{"x_min":44.453125,"x_max":741.71875,"ha":822,"o":"m 641 86 q 393 -9 541 -9 q 144 86 244 -9 q 44 341 44 181 q 144 600 44 501 q 393 698 244 698 q 641 600 541 698 q 741 341 741 501 q 641 86 741 181 m 191 134 q 393 56 272 56 q 594 134 513 56 q 675 341 675 212 q 593 553 675 472 q 393 634 512 634 q 192 553 273 634 q 111 341 111 472 q 191 134 111 212 "},"5":{"x_min":51.390625,"x_max":805.625,"ha":885,"o":"m 456 527 l 75 527 l 75 972 l 751 972 l 751 905 l 144 905 l 144 594 l 456 594 q 621 569 551 594 q 730 501 691 544 q 787 406 769 458 q 805 295 805 355 q 708 79 805 166 q 427 -6 611 -6 q 293 6 355 -6 q 175 48 231 19 q 84 134 118 77 q 51 268 51 190 l 126 268 q 427 68 126 68 q 654 130 577 68 q 730 294 730 193 q 668 461 730 395 q 456 527 605 527 "},"õ":{"x_min":44.453125,"x_max":741.71875,"ha":822,"o":"m 641 86 q 393 -9 541 -9 q 144 86 244 -9 q 44 341 44 181 q 144 600 44 501 q 393 698 244 698 q 641 600 541 698 q 741 341 741 501 q 641 86 741 181 m 191 134 q 393 56 272 56 q 594 134 513 56 q 675 341 675 212 q 593 553 675 472 q 393 634 512 634 q 192 553 273 634 q 111 341 111 472 q 191 134 111 212 m 275 863 l 227 877 q 284 959 234 936 q 384 955 333 982 l 441 926 q 492 920 466 912 q 526 961 518 929 l 573 947 q 518 864 568 887 q 418 869 468 841 l 361 898 q 309 902 336 911 q 275 863 283 894 "},"7":{"x_min":43.0625,"x_max":761.171875,"ha":821,"o":"m 148 0 l 673 902 l 43 902 l 43 972 l 751 972 l 761 911 l 233 0 l 148 0 "},"K":{"x_min":90.28125,"x_max":772.28125,"ha":782,"o":"m 772 5 l 772 0 l 677 0 l 165 479 l 165 1 l 90 1 l 90 972 l 165 972 l 165 529 l 637 972 l 727 972 l 727 965 l 238 506 l 772 5 "},",":{"x_min":52.78125,"x_max":172.234375,"ha":275,"o":"m 62 41 q 79 81 62 66 q 117 95 97 95 q 154 81 137 95 q 172 41 172 66 q 168 18 172 30 l 112 -123 l 52 -123 l 95 -8 q 62 41 62 4 "},"d":{"x_min":38.890625,"x_max":734.78125,"ha":854,"o":"m 386 632 q 184 556 263 632 q 105 343 105 481 q 185 130 105 205 q 386 55 265 55 q 587 136 508 55 q 666 344 666 216 q 586 551 666 470 q 386 632 506 632 m 668 972 l 734 972 l 734 0 l 668 0 l 668 151 q 548 31 626 75 q 381 -11 470 -11 q 136 83 233 -11 q 38 343 38 177 q 136 602 38 508 q 383 697 234 697 q 552 657 476 697 q 668 536 627 616 l 668 972 "},"¨":{"x_min":88.890625,"x_max":495.875,"ha":632,"o":"m 106 902 q 88 941 88 916 q 106 981 88 966 q 143 995 123 995 q 181 981 163 995 q 198 941 198 966 q 181 902 198 916 q 143 887 163 887 q 106 902 123 887 m 403 902 q 386 941 386 916 q 403 981 386 966 q 441 995 420 995 q 478 981 461 995 q 495 941 495 966 q 478 902 495 916 q 441 887 461 887 q 403 902 420 887 "},"Ô":{"x_min":47.21875,"x_max":1027.875,"ha":1117,"o":"m 537 987 q 266 916 380 987 q 100 733 152 844 q 47 487 47 622 q 78 300 47 388 q 169 139 109 211 q 324 25 229 68 q 537 -16 419 -16 q 750 25 655 -16 q 904 138 845 68 q 995 298 963 209 q 1027 484 1027 387 q 900 841 1029 694 q 537 987 770 987 m 537 918 q 845 792 736 918 q 955 486 955 666 q 910 276 955 372 q 768 116 865 180 q 537 52 670 52 q 231 180 341 52 q 120 486 122 308 q 228 793 119 669 q 537 918 337 918 m 322 1091 l 519 1275 l 575 1275 l 772 1091 l 772 1082 l 698 1082 l 547 1215 l 395 1082 l 322 1082 l 322 1091 "},"E":{"x_min":88.890625,"x_max":776.453125,"ha":853,"o":"m 162 901 l 162 523 l 732 523 l 732 455 l 162 455 l 162 72 l 776 72 l 776 0 l 88 0 l 88 972 l 759 972 l 759 901 l 162 901 "},"Y":{"x_min":5.5625,"x_max":840.34375,"ha":888,"o":"m 384 0 l 384 388 l 5 970 l 5 972 l 93 972 l 422 461 l 752 972 l 840 972 l 840 970 l 459 388 l 459 0 l 384 0 "},"\"":{"x_min":75,"x_max":330.578125,"ha":443,"o":"m 75 977 l 137 977 l 137 622 l 75 622 l 75 977 m 269 977 l 330 977 l 330 622 l 269 622 l 269 977 "},"‹":{"x_min":41.671875,"x_max":305.578125,"ha":413,"o":"m 41 440 l 233 744 l 305 744 l 305 737 l 118 440 l 305 143 l 305 134 l 233 134 l 41 440 "},"˙":{"x_min":77.78125,"x_max":187.515625,"ha":286,"o":"m 95 886 q 77 926 77 901 q 95 966 77 951 q 132 980 112 980 q 170 966 152 980 q 187 926 187 951 q 170 886 187 901 q 132 872 152 872 q 95 886 112 872 "},"ê":{"x_min":37.5,"x_max":727.84375,"ha":825,"o":"m 386 -9 q 552 24 472 -9 q 682 122 633 58 l 633 161 q 526 84 595 112 q 386 56 456 56 q 196 125 276 56 q 106 311 116 194 l 725 311 q 643 598 743 500 q 386 697 544 697 q 138 596 240 697 q 37 343 37 495 q 137 86 37 183 q 386 -9 237 -9 m 106 370 q 197 563 118 493 q 386 634 276 634 q 587 565 512 634 q 663 370 662 495 l 106 370 m 172 790 l 369 973 l 425 973 l 622 790 l 622 780 l 548 780 l 397 913 l 245 780 l 172 780 l 172 790 "},"Ï":{"x_min":-38.890625,"x_max":293.078125,"ha":289,"o":"m -21 1085 q -38 1125 -38 1100 q -21 1164 -38 1150 q 15 1179 -4 1179 q 53 1164 36 1179 q 70 1125 70 1150 q 53 1085 70 1100 q 15 1070 36 1070 q -21 1085 -4 1070 m 200 1085 q 183 1125 183 1100 q 200 1164 183 1150 q 238 1179 218 1179 q 275 1164 258 1179 q 293 1125 293 1150 q 275 1085 293 1100 q 238 1070 258 1070 q 200 1085 218 1070 m 90 0 l 163 0 l 163 972 l 90 972 l 90 0 "},"„":{"x_min":52.78125,"x_max":368.078125,"ha":442,"o":"m 62 41 q 79 81 62 66 q 117 95 97 95 q 154 81 137 95 q 172 41 172 66 q 168 18 172 30 l 112 -123 l 52 -123 l 95 -8 q 62 41 62 4 m 258 41 q 275 81 258 66 q 313 95 293 95 q 350 81 333 95 q 368 41 368 66 q 363 18 368 30 l 308 -123 l 248 -123 l 291 -8 q 258 41 258 4 "},"Â":{"x_min":-11.109375,"x_max":943.125,"ha":964,"o":"m 862 0 l 943 0 l 506 972 l 425 972 l -11 0 l 69 0 l 175 238 l 755 238 l 862 0 m 726 308 l 204 308 l 465 900 l 726 308 m 240 1063 l 437 1247 l 493 1247 l 690 1063 l 690 1054 l 616 1054 l 465 1187 l 313 1054 l 240 1054 l 240 1063 "},"Í":{"x_min":87.5,"x_max":281.96875,"ha":289,"o":"m 90 0 l 163 0 l 163 972 l 90 972 l 90 0 m 154 1079 l 87 1079 l 87 1084 l 191 1251 l 281 1251 l 281 1250 l 154 1079 "},"´":{"x_min":54.171875,"x_max":248.625,"ha":311,"o":"m 120 801 l 54 801 l 54 807 l 158 973 l 248 973 l 248 972 l 120 801 "},"ì":{"x_min":-12.5,"x_max":143.0625,"ha":239,"o":"m 143 805 l 79 805 l -12 972 l -12 973 l 65 973 l 143 811 l 143 805 m 72 688 l 140 688 l 140 0 l 72 0 l 72 688 "},"±":{"x_min":101.390625,"x_max":616.71875,"ha":721,"o":"m 101 479 l 101 541 l 327 541 l 327 769 l 391 769 l 391 541 l 616 541 l 616 479 l 391 479 l 391 248 l 327 248 l 327 479 l 101 479 m 112 65 l 112 130 l 609 130 l 609 65 l 112 65 "},"Ú":{"x_min":88.890625,"x_max":833.40625,"ha":949,"o":"m 833 972 l 759 972 l 759 368 q 734 231 759 293 q 666 133 708 170 q 570 75 625 95 q 461 54 516 54 q 351 75 405 54 q 255 133 297 95 q 188 231 213 170 q 162 368 162 293 l 162 972 l 88 972 l 88 368 q 143 156 88 245 q 281 27 198 68 q 461 -12 365 -12 q 640 27 556 -12 q 778 157 723 68 q 833 368 833 247 l 833 972 m 470 1076 l 404 1076 l 404 1082 l 508 1248 l 598 1248 l 598 1247 l 470 1076 "},"|":{"x_min":122.234375,"x_max":195.84375,"ha":350,"o":"m 195 979 l 195 -163 l 122 -163 l 122 979 l 195 979 "},"§":{"x_min":63.890625,"x_max":646.09375,"ha":749,"o":"m 616 902 l 575 859 q 361 930 493 930 q 213 899 275 932 q 154 807 152 866 q 173 751 155 775 q 228 713 191 727 q 290 693 265 700 q 361 679 315 687 q 440 665 408 672 q 516 643 472 658 q 585 609 559 627 q 629 558 611 590 q 645 486 647 526 q 504 331 641 365 q 645 163 651 287 q 597 50 644 94 q 491 -9 550 5 q 363 -23 433 -23 q 188 11 269 -23 q 63 111 106 45 l 113 154 q 222 68 154 97 q 365 40 291 40 q 434 45 401 40 q 501 64 466 51 q 557 104 536 77 q 580 168 579 130 q 545 238 581 211 q 478 274 509 266 q 369 294 447 281 q 355 297 361 295 q 87 483 90 338 q 121 581 86 534 q 216 648 156 627 q 87 805 88 694 q 166 946 86 898 q 361 993 247 994 q 616 902 520 993 m 580 490 q 534 568 579 534 q 426 611 490 601 q 300 615 362 620 q 194 575 237 609 q 154 484 151 540 q 200 407 155 440 q 307 366 244 375 q 433 365 370 358 q 538 405 495 372 q 580 490 581 438 "},"Ý":{"x_min":5.5625,"x_max":840.34375,"ha":888,"o":"m 384 388 l 384 0 l 459 0 l 459 388 l 840 970 l 840 972 l 752 972 l 422 461 l 93 972 l 5 972 l 5 970 l 384 388 m 433 1079 l 366 1079 l 366 1084 l 470 1251 l 561 1251 l 561 1250 l 433 1079 "},"b":{"x_min":76.390625,"x_max":772.28125,"ha":863,"o":"m 425 632 q 224 551 304 632 q 144 344 144 470 q 223 136 144 216 q 425 55 302 55 q 625 130 545 55 q 705 343 705 205 q 626 556 705 481 q 425 632 547 632 m 76 972 l 143 972 l 143 536 q 259 657 183 616 q 427 697 334 697 q 674 602 576 697 q 772 343 772 508 q 675 83 772 177 q 429 -11 577 -11 q 262 31 340 -11 q 143 151 184 75 l 143 0 l 76 0 l 76 972 "},"q":{"x_min":40.28125,"x_max":737.5625,"ha":854,"o":"m 388 52 q 586 134 506 52 q 666 341 666 216 q 587 549 666 468 q 388 630 508 630 q 187 556 266 630 q 108 343 108 481 q 187 128 108 204 q 388 52 266 52 m 737 -286 l 672 -286 l 672 158 q 554 31 629 75 q 388 -12 479 -12 q 138 81 237 -12 q 40 343 40 176 q 134 596 40 502 q 373 695 227 690 q 550 649 472 695 q 670 523 629 602 l 670 686 l 737 686 l 737 -286 "},"Ö":{"x_min":47.21875,"x_max":1027.875,"ha":1117,"o":"m 537 987 q 266 916 380 987 q 100 733 152 844 q 47 487 47 622 q 78 300 47 388 q 169 139 109 211 q 324 25 229 68 q 537 -16 419 -16 q 750 25 655 -16 q 904 138 845 68 q 995 298 963 209 q 1027 484 1027 387 q 900 841 1029 694 q 537 987 770 987 m 537 918 q 845 792 736 918 q 955 486 955 666 q 910 276 955 372 q 768 116 865 180 q 537 52 670 52 q 231 180 341 52 q 120 486 122 308 q 228 793 119 669 q 537 918 337 918 m 367 1102 q 350 1141 350 1116 q 367 1181 350 1166 q 404 1195 384 1195 q 442 1181 425 1195 q 459 1141 459 1166 q 442 1102 459 1116 q 404 1087 425 1087 q 367 1102 384 1087 m 664 1102 q 647 1141 647 1116 q 664 1181 647 1166 q 702 1195 682 1195 q 739 1181 722 1195 q 757 1141 757 1166 q 739 1102 757 1116 q 702 1087 722 1087 q 664 1102 682 1087 "},"ﬂ":{"x_min":6.9375,"x_max":520.875,"ha":646,"o":"m 520 911 l 520 0 l 452 0 l 452 884 q 350 913 413 913 q 247 875 281 913 q 213 741 213 836 l 213 680 l 390 680 l 390 622 l 213 622 l 213 0 l 147 0 l 147 622 l 6 622 l 6 680 l 147 680 l 147 741 q 195 917 147 858 q 352 976 243 976 q 520 911 452 976 "},"z":{"x_min":33.34375,"x_max":572.265625,"ha":638,"o":"m 55 625 l 55 686 l 572 686 l 572 659 l 138 63 l 572 63 l 572 0 l 33 0 l 33 23 l 470 625 l 55 625 "},"™":{"x_min":41.671875,"x_max":936.1875,"ha":1053,"o":"m 197 583 l 197 916 l 41 916 l 41 972 l 420 972 l 420 916 l 262 916 l 262 583 l 197 583 m 495 583 l 495 972 l 556 972 l 716 768 l 877 972 l 936 972 l 936 583 l 870 583 l 870 863 l 720 680 l 708 680 l 561 869 l 561 583 l 495 583 "},"ã":{"x_min":38.890625,"x_max":736.171875,"ha":845,"o":"m 668 686 l 736 686 l 736 0 l 668 0 l 668 145 q 387 -11 570 -11 q 140 88 241 -11 q 38 343 38 188 q 139 595 38 497 q 387 694 240 694 q 550 654 475 694 q 668 536 626 613 l 668 686 m 387 629 q 187 549 268 629 q 106 343 106 469 q 187 136 106 216 q 387 55 268 55 q 527 87 466 55 q 620 169 588 119 q 668 280 652 219 q 668 403 683 341 q 620 515 652 465 q 527 597 588 565 q 387 629 466 629 m 279 865 l 231 880 q 288 964 238 941 q 387 961 337 987 l 444 930 q 495 925 469 916 q 529 966 520 933 l 576 951 q 520 866 570 888 q 420 870 470 843 l 363 901 q 313 906 338 915 q 279 865 287 897 "},"æ":{"x_min":38.890625,"x_max":1350.109375,"ha":1447,"o":"m 1008 -9 q 843 29 916 -9 q 726 138 769 68 l 726 0 l 669 0 l 669 145 q 387 -11 572 -11 q 140 88 241 -11 q 38 343 38 188 q 139 595 38 497 q 387 694 240 694 q 553 653 475 694 q 672 536 632 612 l 672 686 l 729 686 l 729 541 q 845 656 772 615 q 1008 697 918 697 q 1266 598 1166 697 q 1347 311 1365 500 l 726 311 q 816 125 736 194 q 1008 56 897 56 q 1148 84 1079 56 q 1255 161 1218 112 l 1304 122 q 1175 24 1255 58 q 1008 -9 1094 -9 m 387 629 q 187 549 268 629 q 106 343 106 469 q 187 136 106 216 q 387 55 268 55 q 513 79 456 55 q 603 145 569 104 q 656 237 637 186 q 675 342 675 288 q 656 447 675 395 q 603 539 637 498 q 513 604 569 580 q 387 629 456 629 m 726 370 l 1286 370 q 1209 565 1284 495 q 1008 634 1134 634 q 818 563 898 634 q 726 370 737 493 "},"®":{"x_min":112.515625,"x_max":1115.359375,"ha":1270,"o":"m 613 990 q 981 845 847 990 q 1115 483 1115 700 q 981 122 1115 268 q 613 -23 847 -23 q 247 122 381 -23 q 112 483 112 268 q 247 845 112 700 q 613 990 381 990 m 183 483 q 298 165 183 291 q 613 38 413 38 q 929 165 813 38 q 1045 483 1045 291 q 929 802 1045 676 q 613 929 813 929 q 298 802 413 929 q 183 483 183 676 m 688 425 q 804 488 763 434 q 843 601 845 541 q 793 709 840 661 q 665 757 745 757 l 429 757 l 429 225 l 494 225 l 494 425 l 609 425 l 783 225 l 855 225 l 855 236 l 688 425 m 494 483 l 494 693 l 665 693 q 736 671 708 693 q 772 619 765 650 q 771 557 779 588 q 734 504 763 526 q 661 483 704 483 l 494 483 "},"É":{"x_min":88.890625,"x_max":776.453125,"ha":853,"o":"m 162 523 l 162 901 l 759 901 l 759 972 l 88 972 l 88 0 l 776 0 l 776 72 l 162 72 l 162 455 l 732 455 l 732 523 l 162 523 m 445 1080 l 379 1080 l 379 1086 l 483 1252 l 573 1252 l 573 1251 l 445 1080 "},"~":{"x_min":19.453125,"x_max":702.828125,"ha":771,"o":"m 702 463 q 597 338 666 368 q 434 354 527 308 l 283 441 q 154 451 211 475 q 70 363 98 427 l 19 388 q 137 516 61 483 q 312 500 213 548 l 454 419 q 645 486 595 343 l 702 463 "},"³":{"x_min":79.171875,"x_max":459.765625,"ha":563,"o":"m 272 823 l 195 823 l 195 883 l 266 883 q 350 902 313 883 q 386 961 386 920 q 354 1016 386 991 q 266 1040 322 1040 q 184 1019 222 1040 q 145 950 145 998 l 86 950 q 138 1059 86 1023 q 266 1095 190 1095 q 396 1060 343 1095 q 450 959 450 1025 q 427 890 450 918 q 369 852 405 862 q 435 809 411 841 q 459 743 459 777 q 266 590 459 590 q 133 625 186 590 q 79 738 80 661 l 145 738 q 268 652 145 652 q 394 743 394 652 q 363 797 394 772 q 272 823 333 823 "},"¡":{"x_min":65.28125,"x_max":175.015625,"ha":271,"o":"m 87 -279 l 158 -279 l 158 497 l 87 497 l 87 -279 m 157 684 q 175 644 175 669 q 157 604 175 619 q 120 590 140 590 q 82 604 100 590 q 65 644 65 619 q 82 684 65 669 q 120 698 100 698 q 157 684 140 698 "},"[":{"x_min":108.34375,"x_max":359.75,"ha":385,"o":"m 108 -166 l 108 1058 l 359 1058 l 359 991 l 180 991 l 180 -100 l 359 -100 l 359 -166 l 108 -166 "},"L":{"x_min":88.890625,"x_max":711.171875,"ha":764,"o":"m 88 972 l 163 972 l 163 70 l 711 70 l 711 0 l 88 0 l 88 972 "}," ":{"x_min":0,"x_max":0,"ha":382},"%":{"x_min":29.171875,"x_max":926.46875,"ha":1003,"o":"m 823 976 l 747 975 l 127 0 l 205 0 l 823 976 m 240 979 q 357 948 308 979 q 429 872 406 918 q 452 774 452 827 q 429 675 452 720 q 357 600 406 630 q 240 569 308 569 q 123 600 173 569 q 51 675 73 630 q 29 774 29 720 q 51 872 29 827 q 123 948 73 918 q 240 979 173 979 m 713 401 q 831 370 782 401 q 903 295 880 340 q 926 196 926 250 q 903 97 926 143 q 831 22 880 52 q 713 -8 782 -8 q 597 22 647 -8 q 525 97 547 52 q 502 196 502 143 q 525 295 502 250 q 597 370 547 340 q 713 401 647 401 m 808 313 q 713 344 769 344 q 619 313 658 344 q 572 240 580 283 q 572 154 563 197 q 620 80 581 111 q 715 50 659 50 q 809 80 770 50 q 857 154 848 111 q 856 240 865 197 q 808 313 847 283 m 240 919 q 145 889 183 919 q 97 817 106 859 q 97 732 88 775 q 145 660 106 690 q 241 630 184 630 q 334 660 297 630 q 381 732 372 690 q 381 817 390 775 q 334 889 372 859 q 240 919 295 919 "},"P":{"x_min":88.890625,"x_max":830.625,"ha":908,"o":"m 515 902 l 163 902 l 163 404 l 515 404 q 634 431 581 404 q 713 503 686 459 q 752 600 740 547 q 752 706 765 652 q 713 803 740 759 q 634 875 686 847 q 515 902 581 902 m 515 336 l 163 336 l 163 0 l 88 0 l 88 972 l 515 972 q 690 925 616 972 q 797 807 763 877 q 830 654 830 736 q 797 501 830 572 q 690 383 763 430 q 515 336 616 336 "},"À":{"x_min":-11.109375,"x_max":943.125,"ha":964,"o":"m 943 0 l 862 0 l 755 238 l 175 238 l 69 0 l -11 0 l 425 972 l 506 972 l 943 0 m 204 308 l 726 308 l 465 900 l 204 308 m 504 1072 l 437 1072 l 309 1243 l 309 1244 l 400 1244 l 504 1077 l 504 1072 "},"_":{"x_min":18.0625,"x_max":668.109375,"ha":714,"o":"m 18 -100 l 18 -36 l 668 -36 l 668 -100 l 18 -100 "},"ñ":{"x_min":76.390625,"x_max":697.28125,"ha":799,"o":"m 76 686 l 143 686 l 143 563 q 387 698 216 695 q 611 617 526 698 q 697 395 697 536 l 697 0 l 629 0 l 629 394 q 563 571 629 509 q 384 632 498 633 q 211 559 279 630 q 144 381 144 488 l 144 0 l 76 0 l 76 686 m 261 868 l 213 882 q 270 960 220 938 q 368 957 319 982 l 425 927 q 475 922 450 915 q 509 961 501 930 l 556 947 q 501 868 551 890 q 401 872 451 847 l 344 901 q 295 905 320 913 q 261 868 269 897 "},"+":{"x_min":68.0625,"x_max":619.5,"ha":699,"o":"m 68 508 l 311 508 l 311 747 l 376 747 l 376 508 l 619 508 l 619 441 l 376 441 l 376 195 l 311 195 l 311 441 l 68 441 l 68 508 "},"‚":{"x_min":52.78125,"x_max":172.234375,"ha":275,"o":"m 62 41 q 79 81 62 66 q 117 95 97 95 q 154 81 137 95 q 172 41 172 66 q 168 18 172 30 l 112 -123 l 52 -123 l 95 -8 q 62 41 62 4 "},"½":{"x_min":90.28125,"x_max":1025.078125,"ha":1128,"o":"m 275 -9 l 201 -9 l 719 982 l 794 982 l 275 -9 m 93 484 l 93 543 l 166 543 l 166 913 l 90 913 l 90 972 l 233 972 l 233 543 l 304 543 l 304 484 l 93 484 m 716 354 l 652 354 q 840 501 652 501 q 971 468 918 501 q 1025 354 1025 434 q 841 204 1025 204 q 756 183 795 204 q 716 109 716 162 l 716 58 l 1016 58 l 1016 0 l 650 0 l 650 111 q 706 222 650 183 q 841 262 762 262 q 959 354 959 262 q 838 443 959 443 q 749 425 782 443 q 716 354 716 406 "},"Æ":{"x_min":16.671875,"x_max":1250.09375,"ha":1329,"o":"m 723 904 l 723 523 l 1202 523 l 1202 455 l 723 455 l 723 70 l 1250 70 l 1250 0 l 654 0 l 654 344 l 306 344 l 102 0 l 16 0 l 608 972 l 1230 972 l 1230 904 l 723 904 m 654 412 l 654 915 l 647 915 l 347 412 l 654 412 "},"Ë":{"x_min":88.890625,"x_max":776.453125,"ha":853,"o":"m 162 523 l 162 901 l 759 901 l 759 972 l 88 972 l 88 0 l 776 0 l 776 72 l 162 72 l 162 455 l 732 455 l 732 523 l 162 523 m 260 1096 q 243 1136 243 1111 q 260 1175 243 1161 q 297 1190 277 1190 q 335 1175 318 1190 q 352 1136 352 1161 q 335 1096 352 1111 q 297 1082 318 1082 q 260 1096 277 1082 m 557 1096 q 540 1136 540 1111 q 557 1175 540 1161 q 595 1190 575 1190 q 632 1175 615 1190 q 650 1136 650 1161 q 632 1096 650 1111 q 595 1082 615 1082 q 557 1096 575 1082 "},"'":{"x_min":101.390625,"x_max":162.515625,"ha":290,"o":"m 101 977 l 162 977 l 162 622 l 101 622 l 101 977 "},"Š":{"x_min":26.390625,"x_max":809.78125,"ha":892,"o":"m 719 784 l 780 820 q 629 952 713 919 q 425 986 545 986 q 298 972 359 986 q 179 929 237 958 q 88 845 122 900 q 55 716 54 790 q 68 638 55 673 q 111 579 81 604 q 167 537 140 554 q 244 506 194 520 q 325 484 294 491 q 415 466 356 477 q 495 450 468 456 q 568 431 523 444 q 636 405 612 419 q 686 370 661 391 q 723 321 712 350 q 734 258 734 293 q 704 154 734 197 q 623 90 673 111 q 525 61 573 69 q 425 52 476 52 q 231 99 327 52 q 93 229 134 145 l 26 195 q 190 38 79 91 q 425 -15 301 -15 q 554 -2 493 -15 q 676 38 616 9 q 772 122 736 66 q 809 256 809 179 q 788 361 809 316 q 732 433 768 405 q 648 480 697 461 q 547 511 600 500 q 438 534 495 523 q 427 536 431 536 q 332 554 368 547 q 253 577 297 562 q 186 610 209 593 q 147 655 163 627 q 130 719 130 683 q 182 838 130 791 q 296 901 234 886 q 425 916 358 916 q 597 888 525 915 q 719 784 670 862 m 652 1263 l 455 1080 l 400 1080 l 202 1263 l 202 1273 l 276 1273 l 427 1140 l 579 1273 l 652 1273 l 652 1263 "},"ª":{"x_min":54.171875,"x_max":534.765625,"ha":649,"o":"m 459 887 l 459 973 l 520 973 l 520 523 l 459 523 l 459 611 q 283 518 397 518 q 120 581 186 518 q 54 750 54 644 q 120 918 54 855 q 283 980 186 980 q 459 887 400 980 m 287 916 q 170 870 218 916 q 123 750 123 823 q 170 629 123 676 q 287 581 218 581 q 393 616 350 581 q 445 700 436 651 q 445 798 455 750 q 393 882 436 847 q 287 916 350 916 m 70 370 l 70 437 l 534 437 l 534 370 l 70 370 "},"Œ":{"x_min":73.609375,"x_max":1247.328125,"ha":1356,"o":"m 723 905 l 723 523 l 1195 523 l 1195 455 l 723 455 l 723 66 l 1247 66 l 1247 0 l 659 0 q 563 -6 608 -6 q 350 34 445 -6 q 195 144 255 75 q 104 301 136 213 q 73 487 73 388 q 126 731 73 622 q 292 910 179 840 q 563 980 405 980 q 662 972 616 980 l 1226 972 l 1226 905 l 723 905 m 563 922 q 332 860 429 922 q 190 701 236 798 q 147 486 145 604 q 258 181 148 308 q 563 55 368 55 q 659 63 613 55 l 659 913 q 563 922 613 922 "},"˛":{"x_min":100.1875,"x_max":418.09375,"ha":565,"o":"m 305 -13 l 326 -56 q 169 -97 209 -36 q 170 -180 141 -138 q 254 -215 198 -218 q 320 -195 287 -213 q 373 -145 354 -177 l 418 -170 q 352 -240 397 -215 q 258 -268 308 -265 q 115 -198 154 -272 q 122 -76 81 -136 q 305 -13 176 1 "},"ð":{"x_min":44.453125,"x_max":748.75,"ha":828,"o":"m 504 994 l 548 963 l 484 873 q 748 351 744 700 q 654 86 751 187 q 395 -15 558 -15 q 200 36 283 -15 q 81 164 118 87 q 44 331 44 241 q 81 497 44 420 q 200 626 118 575 q 395 677 283 677 q 652 569 538 677 q 448 822 609 713 l 390 738 l 345 769 l 402 851 q 258 911 327 893 l 277 969 q 438 901 372 938 l 504 994 m 395 48 q 534 79 473 48 q 627 161 595 111 q 672 271 658 211 q 672 392 687 331 q 627 502 658 452 q 534 584 595 552 q 395 615 473 615 q 239 573 305 615 q 143 468 173 531 q 113 331 113 405 q 143 195 113 258 q 239 90 173 131 q 395 48 305 48 "},"T":{"x_min":13.890625,"x_max":791.734375,"ha":845,"o":"m 365 0 l 365 904 l 13 904 l 13 970 l 791 970 l 791 904 l 440 904 l 440 0 l 365 0 "},"š":{"x_min":36.109375,"x_max":618.21875,"ha":693,"o":"m 547 561 l 588 605 q 333 697 491 697 q 139 649 219 698 q 61 505 59 600 q 77 435 61 465 q 115 387 94 405 q 177 355 137 369 q 247 335 218 341 q 327 320 276 329 q 395 309 372 313 q 454 293 419 304 q 507 270 490 283 q 538 235 525 256 q 551 184 552 213 q 511 103 550 134 q 430 63 473 72 q 337 54 387 54 q 195 83 263 54 q 86 170 126 112 l 36 126 q 160 24 79 59 q 336 -11 241 -11 q 463 4 404 -11 q 569 64 522 19 q 618 180 616 109 q 602 258 619 225 q 563 310 586 291 q 497 344 540 329 q 427 365 454 359 q 351 379 400 370 q 334 381 340 380 q 288 390 300 387 q 244 400 276 393 q 197 416 212 408 q 163 436 183 423 q 135 467 144 450 q 126 506 126 484 q 185 602 125 569 q 333 633 245 634 q 547 561 465 633 m 565 966 l 375 790 l 320 790 l 131 966 l 131 976 l 202 976 l 348 847 l 494 976 l 565 976 l 565 966 "},"Þ":{"x_min":93.0625,"x_max":836.171875,"ha":908,"o":"m 93 0 l 93 970 l 162 970 l 162 801 l 519 801 q 657 774 595 801 q 757 702 719 747 q 816 600 795 657 q 836 483 836 543 q 816 366 836 423 q 757 264 795 309 q 657 192 719 219 q 519 165 595 165 l 163 165 l 163 0 l 93 0 m 519 732 l 163 732 l 163 233 l 519 233 q 653 270 597 233 q 735 362 709 306 q 761 482 761 418 q 735 602 761 547 q 653 695 709 658 q 519 732 597 732 "},"j":{"x_min":-150.015625,"x_max":177.796875,"ha":265,"o":"m 156 687 l 90 687 l 90 -66 q 68 -193 90 -150 q -26 -237 45 -237 q -130 -209 -81 -237 l -150 -268 q -26 -301 -87 -301 q 118 -240 79 -301 q 156 -66 158 -179 l 156 687 m 85 877 q 68 916 68 891 q 85 956 68 941 q 122 970 102 970 q 160 956 143 970 q 177 916 177 941 q 160 877 177 891 q 122 862 143 862 q 85 877 102 862 "},"1":{"x_min":5.5625,"x_max":408.359375,"ha":456,"o":"m 5 0 l 5 65 l 169 65 l 169 905 l 5 905 l 5 972 l 244 972 l 244 65 l 408 65 l 408 0 l 5 0 "},"›":{"x_min":69.453125,"x_max":333.359375,"ha":413,"o":"m 333 440 l 141 134 l 69 134 l 69 143 l 256 440 l 69 737 l 69 744 l 141 744 l 333 440 "},"ı":{"x_min":76.390625,"x_max":144.453125,"ha":263,"o":"m 76 688 l 144 688 l 144 0 l 76 0 l 76 688 "},"ä":{"x_min":38.890625,"x_max":736.171875,"ha":845,"o":"m 736 686 l 668 686 l 668 536 q 550 654 626 613 q 387 694 475 694 q 139 595 240 694 q 38 343 38 497 q 140 88 38 188 q 387 -11 241 -11 q 668 145 570 -11 l 668 0 l 736 0 l 736 686 m 387 629 q 527 597 466 629 q 620 515 588 565 q 668 403 652 465 q 668 280 683 341 q 620 169 652 219 q 527 87 588 119 q 387 55 466 55 q 187 136 268 55 q 106 343 106 216 q 187 549 106 469 q 387 629 268 629 m 228 888 q 211 927 211 902 q 228 967 211 952 q 266 982 245 982 q 303 967 286 982 q 320 927 320 952 q 303 888 320 902 q 266 873 286 873 q 228 888 245 873 m 525 888 q 508 927 508 902 q 525 967 508 952 q 563 982 543 982 q 600 967 583 982 q 618 927 618 952 q 600 888 618 902 q 563 873 583 873 q 525 888 543 873 "},"<":{"x_min":45.84375,"x_max":386.140625,"ha":493,"o":"m 45 468 l 338 726 l 380 679 l 113 441 l 386 202 l 338 155 l 45 413 l 45 468 "},"£":{"x_min":81.953125,"x_max":811.171875,"ha":921,"o":"m 81 427 l 81 487 l 193 487 q 155 704 155 627 q 249 910 155 840 q 487 980 343 980 q 712 922 625 980 q 801 729 800 863 l 737 729 q 697 845 737 801 q 605 902 657 888 q 487 916 554 916 q 295 861 368 916 q 223 704 223 807 q 227 646 223 677 q 236 595 231 615 q 249 538 240 575 q 261 487 258 501 l 620 487 l 620 427 l 273 427 q 283 306 283 363 q 254 186 283 248 q 165 66 225 123 l 811 66 l 811 0 l 81 0 l 81 62 q 184 198 151 133 q 218 316 218 263 q 208 427 219 369 l 81 427 "},"¹":{"x_min":70.84375,"x_max":284.75,"ha":392,"o":"m 73 593 l 73 651 l 147 651 l 147 1026 l 70 1026 l 70 1084 l 213 1084 l 213 651 l 284 651 l 284 593 l 73 593 "},"t":{"x_min":20.828125,"x_max":488.921875,"ha":547,"o":"m 166 886 l 233 893 l 233 686 l 466 686 l 466 629 l 233 629 l 233 211 q 259 92 233 131 q 359 52 284 52 q 465 80 406 52 l 488 25 q 359 -9 416 -9 q 211 47 255 -9 q 166 211 166 104 l 166 629 l 20 629 l 20 686 l 166 686 l 166 886 "},"¬":{"x_min":52.78125,"x_max":534.765625,"ha":628,"o":"m 534 502 l 534 243 l 465 243 l 465 431 l 52 431 l 52 502 l 534 502 "},"ù":{"x_min":75,"x_max":695.890625,"ha":799,"o":"m 695 0 l 629 0 l 629 123 q 384 -11 555 -8 q 160 70 245 -11 q 75 291 75 151 l 75 687 l 143 687 l 143 293 q 208 115 143 177 q 387 55 273 54 q 560 127 493 56 q 627 305 627 198 l 627 687 l 695 687 l 695 0 m 451 801 l 384 801 l 256 972 l 256 973 l 347 973 l 451 807 l 451 801 "},"W":{"x_min":11.109375,"x_max":1409.828125,"ha":1452,"o":"m 390 83 l 688 972 l 730 972 l 1027 83 l 1329 972 l 1409 972 l 1066 -2 l 986 -2 l 832 452 l 709 837 l 587 455 l 431 -2 l 351 -2 l 11 972 l 90 972 l 390 83 "},"ï":{"x_min":-37.5,"x_max":256.96875,"ha":268,"o":"m -11 869 q -37 913 -37 882 q -11 958 -37 945 q 40 958 13 970 q 66 913 66 945 q 40 869 66 882 q -11 869 13 857 m 179 869 q 154 913 154 882 q 179 958 154 945 q 231 958 205 970 q 256 913 256 945 q 231 869 256 882 q 179 869 205 857 m 144 688 l 76 688 l 76 0 l 144 0 l 144 688 "},">":{"x_min":61.109375,"x_max":401.421875,"ha":499,"o":"m 108 726 l 401 468 l 401 413 l 108 155 l 61 202 l 333 441 l 66 679 l 108 726 "},"v":{"x_min":11.109375,"x_max":661.15625,"ha":697,"o":"m 298 0 l 11 686 l 86 686 l 336 79 l 586 686 l 661 686 l 373 0 l 298 0 "},"û":{"x_min":75,"x_max":695.890625,"ha":799,"o":"m 629 0 l 695 0 l 695 687 l 627 687 l 627 305 q 560 127 627 198 q 387 55 493 56 q 208 115 273 54 q 143 293 143 177 l 143 687 l 75 687 l 75 291 q 160 70 75 151 q 384 -11 245 -11 q 629 123 555 -8 l 629 0 m 173 797 l 363 973 l 418 973 l 608 797 l 608 787 l 537 787 l 390 915 l 244 787 l 173 787 l 173 797 "},"Ò":{"x_min":47.21875,"x_max":1027.875,"ha":1117,"o":"m 537 987 q 900 841 770 987 q 1027 484 1029 694 q 995 298 1027 387 q 904 138 963 209 q 750 25 845 68 q 537 -16 655 -16 q 324 25 419 -16 q 169 139 229 68 q 78 300 109 211 q 47 487 47 388 q 100 733 47 622 q 266 916 152 844 q 537 987 380 987 m 537 918 q 228 793 337 918 q 120 486 119 669 q 231 180 122 308 q 537 52 341 52 q 768 116 670 52 q 910 276 865 180 q 955 486 955 372 q 845 792 955 666 q 537 918 736 918 m 584 1087 l 518 1087 l 390 1258 l 390 1259 l 480 1259 l 584 1093 l 584 1087 "},"&":{"x_min":105.5625,"x_max":913.96875,"ha":1000,"o":"m 780 737 l 715 737 q 701 814 715 782 q 665 866 687 847 q 609 897 643 886 q 543 912 576 908 q 466 916 509 916 q 261 861 331 916 q 193 720 191 807 q 219 628 193 668 q 288 567 245 588 q 376 536 330 545 q 469 526 422 526 l 882 526 l 882 466 l 793 466 l 793 254 q 820 110 793 163 q 913 58 847 56 l 913 0 q 811 26 855 -8 q 751 123 766 61 q 465 -12 668 -12 q 197 59 290 -12 q 105 258 105 131 q 163 406 105 343 q 301 495 220 469 q 172 579 223 519 q 122 719 122 640 q 213 906 122 834 q 468 977 305 977 q 780 737 780 977 m 732 254 l 732 466 l 465 466 q 253 403 330 466 q 176 258 176 340 q 248 106 176 161 q 463 52 320 52 q 552 61 509 52 q 638 91 595 70 q 706 154 680 112 q 732 254 732 195 "},"˝":{"x_min":43.0625,"x_max":416.703125,"ha":489,"o":"m 109 816 l 43 816 l 43 822 l 143 973 l 233 973 l 233 972 l 109 816 m 293 816 l 226 816 l 226 822 l 326 973 l 416 973 l 416 972 l 293 816 "},"Ð":{"x_min":-11.109375,"x_max":904.46875,"ha":985,"o":"m -11 440 l -11 508 l 81 508 l 81 972 l 411 972 q 625 932 530 972 q 779 823 720 891 q 870 672 838 755 q 904 497 901 588 q 877 315 907 402 q 788 156 847 227 q 631 42 729 84 q 411 0 534 0 l 81 0 l 81 440 l -11 440 m 411 901 l 156 901 l 156 508 l 383 508 l 383 440 l 156 440 l 156 72 l 411 72 q 722 199 613 72 q 829 497 832 326 q 717 782 826 663 q 411 901 608 901 "},"I":{"x_min":90.28125,"x_max":163.90625,"ha":289,"o":"m 163 0 l 90 0 l 90 972 l 163 972 l 163 0 "},"G":{"x_min":40.265625,"x_max":908.40625,"ha":1022,"o":"m 897 840 l 854 793 q 541 918 726 918 q 225 791 338 918 q 112 484 111 665 q 225 180 112 302 q 541 58 337 58 q 837 170 715 58 l 837 443 l 498 443 l 498 508 l 908 508 l 908 144 q 541 -12 751 -12 q 265 56 381 -12 q 95 236 150 126 q 40 483 40 347 q 178 847 38 709 q 541 986 318 986 q 897 840 750 986 "},"`":{"x_min":40.28125,"x_max":234.734375,"ha":325,"o":"m 234 801 l 168 801 l 40 972 l 40 973 l 130 973 l 234 807 l 234 801 "},"·":{"x_min":50,"x_max":159.734375,"ha":249,"o":"m 67 431 q 50 470 50 445 q 67 510 50 495 q 104 525 84 525 q 142 510 125 525 q 159 470 159 495 q 142 431 159 445 q 104 416 125 416 q 67 431 84 416 "},"r":{"x_min":76.390625,"x_max":518.09375,"ha":544,"o":"m 76 686 l 140 686 l 143 563 q 236 661 173 629 q 370 693 298 693 q 518 652 448 695 l 487 597 q 370 629 436 629 q 209 561 275 627 q 144 400 144 494 l 144 0 l 76 0 l 76 686 "},"¿":{"x_min":56.953125,"x_max":804.234375,"ha":899,"o":"m 804 -16 l 732 -16 q 703 -122 732 -77 q 628 -190 675 -168 q 533 -223 581 -213 q 431 -233 484 -233 q 127 -20 127 -233 q 276 181 127 137 q 449 284 404 219 q 494 493 494 348 l 425 493 q 396 320 425 362 q 258 244 368 277 q 115 156 175 219 q 56 -20 56 93 q 79 -134 56 -84 q 137 -215 101 -184 q 223 -265 173 -245 q 324 -292 273 -284 q 431 -300 375 -300 q 537 -291 486 -300 q 638 -260 588 -281 q 723 -207 687 -238 q 782 -127 759 -176 q 804 -16 804 -77 m 481 687 q 508 638 508 673 q 481 590 508 604 q 427 590 454 576 q 400 638 400 604 q 427 687 400 673 q 481 687 454 701 "},"ý":{"x_min":23.609375,"x_max":662.546875,"ha":718,"o":"m 662 686 l 588 686 l 416 281 l 337 81 l 256 280 l 97 686 l 23 686 l 298 8 l 172 -286 l 244 -286 l 662 686 m 358 811 l 295 811 l 295 816 l 393 973 l 479 973 l 479 972 l 358 811 "},"x":{"x_min":12.5,"x_max":623.65625,"ha":675,"o":"m 113 686 l 318 405 l 522 686 l 604 686 l 604 683 l 358 355 l 623 2 l 623 0 l 543 0 l 318 306 l 93 0 l 12 0 l 12 2 l 277 355 l 31 683 l 31 686 l 113 686 "},"è":{"x_min":37.5,"x_max":727.84375,"ha":825,"o":"m 386 -9 q 137 86 237 -9 q 37 343 37 183 q 138 596 37 495 q 386 697 240 697 q 643 598 544 697 q 725 311 743 500 l 106 311 q 196 125 116 194 q 386 56 276 56 q 526 84 456 56 q 633 161 595 112 l 682 122 q 552 24 633 58 q 386 -9 472 -9 m 106 370 l 663 370 q 587 565 662 495 q 386 634 512 634 q 197 563 276 634 q 106 370 118 493 m 462 801 l 395 801 l 268 972 l 268 973 l 358 973 l 462 807 l 462 801 "},"º":{"x_min":69.453125,"x_max":472.265625,"ha":565,"o":"m 134 875 l 134 802 q 162 703 134 744 q 229 652 190 662 q 309 652 269 643 q 376 702 348 661 q 404 802 404 743 l 404 875 q 376 977 404 936 q 309 1029 348 1019 q 229 1029 269 1038 q 162 977 190 1019 q 134 875 134 936 m 69 802 l 69 875 q 99 995 69 944 q 173 1070 129 1047 q 270 1093 218 1093 q 368 1070 323 1093 q 442 995 412 1047 q 472 875 472 944 l 472 802 q 442 682 472 733 q 368 607 412 630 q 270 584 323 584 q 173 607 218 584 q 99 682 129 630 q 69 802 69 733 "},"Ø":{"x_min":47.21875,"x_max":1027.859375,"ha":1117,"o":"m 254 -109 l 180 -109 l 272 51 q 104 234 162 118 q 47 487 47 351 q 100 733 47 622 q 266 916 152 844 q 537 987 380 987 q 773 934 670 987 l 843 1057 l 918 1057 l 829 902 q 977 724 926 834 q 1027 484 1027 613 q 995 298 1027 387 q 904 138 963 209 q 750 25 845 68 q 537 -16 655 -16 q 329 22 427 -16 l 254 -109 m 537 918 q 228 793 337 918 q 120 486 119 669 q 169 272 120 372 q 308 115 218 173 l 738 873 q 537 918 647 918 m 537 52 q 768 116 670 52 q 910 276 865 180 q 955 486 955 372 q 913 686 955 593 q 794 838 872 779 l 365 84 q 537 52 441 52 "},"μ":{"x_min":112.515625,"x_max":730.609375,"ha":879,"o":"m 668 97 q 517 -15 620 13 q 315 -12 413 -45 q 183 101 216 20 l 183 -313 l 112 -313 l 112 682 l 180 682 l 180 268 q 229 117 180 180 q 350 38 279 54 q 493 36 422 22 q 613 117 563 50 q 662 287 662 184 l 662 682 l 730 682 l 730 0 l 672 0 l 668 97 "},"÷":{"x_min":50,"x_max":611.15625,"ha":674,"o":"m 50 498 l 50 429 l 611 429 l 611 498 l 50 498 m 296 209 q 279 248 279 223 q 296 288 279 273 q 334 302 313 302 q 371 288 354 302 q 388 248 388 273 q 371 209 388 223 q 334 194 354 194 q 296 209 313 194 m 296 632 q 279 672 279 647 q 296 711 279 697 q 334 726 313 726 q 371 711 354 726 q 388 672 388 697 q 371 632 388 647 q 334 618 354 618 q 296 632 313 618 "},"h":{"x_min":76.390625,"x_max":676.4375,"ha":778,"o":"m 76 972 l 141 972 l 141 558 q 388 695 218 693 q 602 613 529 695 q 676 393 676 531 l 676 0 l 609 0 l 609 393 q 554 567 609 504 q 388 630 500 630 q 213 557 281 630 q 144 376 144 484 l 144 0 l 76 0 l 76 972 "},".":{"x_min":50,"x_max":159.734375,"ha":265,"o":"m 67 2 q 50 41 50 16 q 67 81 50 66 q 104 95 84 95 q 142 81 125 95 q 159 41 159 66 q 142 2 159 16 q 104 -12 125 -12 q 67 2 84 -12 "},";":{"x_min":62.5,"x_max":181.953125,"ha":292,"o":"m 89 418 q 72 458 72 433 q 89 497 72 483 q 127 512 106 512 q 164 497 147 512 q 181 458 181 483 q 164 418 181 433 q 127 404 147 404 q 89 418 106 404 m 72 41 q 89 81 72 66 q 127 95 106 95 q 164 81 147 95 q 181 41 181 66 q 177 18 181 30 l 122 -123 l 62 -123 l 105 -8 q 72 41 72 4 "},"f":{"x_min":6.9375,"x_max":488.921875,"ha":524,"o":"m 213 0 l 147 0 l 147 620 l 6 620 l 6 680 l 147 680 l 147 741 q 352 976 147 976 q 488 929 426 976 l 455 879 q 350 913 397 913 q 213 741 213 913 l 213 680 l 440 680 l 440 620 l 213 620 l 213 0 "},"“":{"x_min":55.5625,"x_max":381.96875,"ha":478,"o":"m 320 973 l 381 973 l 309 712 l 230 712 l 320 973 m 145 973 l 206 973 l 134 712 l 55 712 l 145 973 "},"A":{"x_min":-11.109375,"x_max":943.125,"ha":964,"o":"m 943 0 l 862 0 l 755 238 l 175 238 l 69 0 l -11 0 l 425 972 l 506 972 l 943 0 m 204 308 l 726 308 l 465 900 l 204 308 "},"6":{"x_min":68.0625,"x_max":832.015625,"ha":917,"o":"m 141 716 l 141 451 q 452 588 237 588 q 590 571 525 588 q 711 520 655 554 q 799 426 766 486 q 832 288 832 366 q 798 149 832 209 q 709 55 765 88 q 588 5 654 22 q 451 -11 523 -11 q 269 17 352 -11 q 127 116 186 45 q 68 291 68 187 l 68 716 q 177 916 68 845 q 437 986 286 986 q 695 922 590 986 q 808 740 800 858 l 733 740 q 645 872 727 825 q 437 919 562 919 q 229 866 318 919 q 141 716 141 812 m 451 59 q 559 70 508 59 q 656 106 609 81 q 730 178 702 131 q 758 288 758 225 q 664 460 758 400 q 452 520 570 520 q 239 461 334 520 q 143 290 144 401 q 170 181 143 227 q 245 109 198 134 q 343 71 291 83 q 451 59 395 59 "},"‘":{"x_min":58.34375,"x_max":209.734375,"ha":285,"o":"m 148 976 l 209 976 l 137 715 l 58 715 l 148 976 "},"O":{"x_min":47.21875,"x_max":1027.875,"ha":1117,"o":"m 537 987 q 900 841 770 987 q 1027 484 1029 694 q 995 298 1027 387 q 904 138 963 209 q 750 25 845 68 q 537 -16 655 -16 q 324 25 419 -16 q 169 139 229 68 q 78 300 109 211 q 47 487 47 388 q 100 733 47 622 q 266 916 152 844 q 537 987 380 987 m 537 918 q 228 793 337 918 q 120 486 119 669 q 231 180 122 308 q 537 52 341 52 q 768 116 670 52 q 910 276 865 180 q 955 486 955 372 q 845 792 955 666 q 537 918 736 918 "},"n":{"x_min":76.390625,"x_max":697.28125,"ha":799,"o":"m 76 686 l 143 686 l 143 563 q 387 698 216 695 q 611 617 526 698 q 697 395 697 536 l 697 0 l 629 0 l 629 394 q 563 571 629 509 q 384 632 498 633 q 211 559 279 630 q 144 381 144 488 l 144 0 l 76 0 l 76 686 "},"3":{"x_min":44.453125,"x_max":798.671875,"ha":889,"o":"m 130 734 l 59 734 q 93 858 59 807 q 181 936 126 909 q 296 973 237 962 q 422 984 355 984 q 684 912 590 984 q 780 727 779 840 q 720 581 780 645 q 575 501 661 516 q 732 416 666 484 q 798 262 798 348 q 700 65 798 143 q 425 -12 601 -12 q 293 0 355 -12 q 172 37 231 11 q 79 118 113 63 q 44 247 44 172 l 116 247 q 138 160 116 197 q 189 104 159 123 q 264 73 219 84 q 345 59 309 62 q 426 56 381 56 q 650 114 572 56 q 727 259 727 172 q 647 405 727 343 q 425 468 566 468 l 263 468 l 263 530 l 420 530 q 634 591 556 530 q 712 727 711 651 q 637 865 713 808 q 423 922 561 922 q 130 734 130 922 "},"9":{"x_min":55.5625,"x_max":819.515625,"ha":933,"o":"m 747 258 l 747 523 q 434 386 651 386 q 297 403 362 386 q 176 454 231 420 q 88 548 120 488 q 55 686 55 608 q 88 825 55 765 q 177 919 122 886 q 298 969 233 952 q 436 986 363 986 q 618 957 534 986 q 760 858 701 929 q 819 683 819 787 l 819 258 q 710 59 819 129 q 450 -11 601 -11 q 192 52 297 -11 q 79 234 87 116 l 154 234 q 242 102 159 150 q 450 55 325 55 q 658 109 569 55 q 747 258 747 162 m 436 915 q 328 904 379 915 q 231 868 277 893 q 156 796 184 843 q 129 686 129 750 q 156 577 129 625 q 230 504 184 530 q 327 466 276 479 q 434 454 379 454 q 647 513 552 454 q 744 684 743 573 q 716 793 744 747 q 642 866 688 840 q 543 903 595 891 q 436 915 491 915 "},"l":{"x_min":76.390625,"x_max":144.453125,"ha":258,"o":"m 76 972 l 144 972 l 144 0 l 76 0 l 76 972 "},"¤":{"x_min":59.734375,"x_max":668.109375,"ha":781,"o":"m 668 713 l 586 632 q 645 451 645 554 q 584 272 644 348 l 668 188 l 619 140 l 534 223 q 363 172 465 172 q 191 223 262 172 l 108 140 l 59 188 l 143 272 q 82 452 83 348 q 141 632 81 555 l 59 713 l 108 762 l 190 679 q 363 733 262 733 q 536 679 463 733 l 619 762 l 668 713 m 363 237 q 480 269 430 237 q 552 349 530 301 q 575 453 575 397 q 552 557 575 509 q 480 637 530 605 q 363 669 430 669 q 246 637 295 669 q 174 557 197 605 q 151 453 151 509 q 174 349 151 397 q 246 269 197 301 q 363 237 295 237 "},"4":{"x_min":18.0625,"x_max":826.453125,"ha":888,"o":"m 580 972 l 704 972 l 704 294 l 826 294 l 826 219 l 704 219 l 704 0 l 629 0 l 629 219 l 33 219 l 18 309 l 580 972 m 629 294 l 629 916 l 98 294 l 629 294 "},"p":{"x_min":76.390625,"x_max":773.671875,"ha":864,"o":"m 425 52 q 626 128 547 52 q 705 343 705 204 q 626 556 705 481 q 425 630 547 630 q 226 549 305 630 q 147 341 147 468 q 227 134 147 216 q 425 52 306 52 m 141 -286 l 76 -286 l 76 686 l 143 686 l 143 523 q 263 649 184 602 q 440 695 341 695 q 679 596 586 690 q 773 343 773 502 q 675 81 773 176 q 425 -12 576 -12 q 259 31 334 -12 q 141 158 184 75 l 141 -286 "},"‡":{"x_min":61.109375,"x_max":729.21875,"ha":828,"o":"m 729 698 l 729 633 l 429 633 l 429 247 l 729 247 l 729 181 l 429 181 l 429 -183 l 361 -183 l 361 181 l 61 181 l 61 247 l 361 247 l 361 633 l 61 633 l 61 698 l 361 698 l 361 972 l 429 972 l 429 698 l 729 698 "},"à":{"x_min":38.890625,"x_max":736.171875,"ha":845,"o":"m 668 686 l 736 686 l 736 0 l 668 0 l 668 145 q 387 -11 570 -11 q 140 88 241 -11 q 38 343 38 188 q 139 595 38 497 q 387 694 240 694 q 550 654 475 694 q 668 536 626 613 l 668 686 m 387 629 q 187 549 268 629 q 106 343 106 469 q 187 136 106 216 q 387 55 268 55 q 527 87 466 55 q 620 169 588 119 q 668 280 652 219 q 668 403 683 341 q 620 515 652 465 q 527 597 588 565 q 387 629 466 629 m 458 811 l 391 811 l 263 982 l 263 983 l 354 983 l 458 816 l 458 811 "},"Ü":{"x_min":88.890625,"x_max":833.40625,"ha":949,"o":"m 833 972 l 759 972 l 759 368 q 734 231 759 293 q 666 133 708 170 q 570 75 625 95 q 461 54 516 54 q 351 75 405 54 q 255 133 297 95 q 188 231 213 170 q 162 368 162 293 l 162 972 l 88 972 l 88 368 q 143 156 88 245 q 281 27 198 68 q 461 -12 365 -12 q 640 27 556 -12 q 778 157 723 68 q 833 368 833 247 l 833 972 m 275 1098 q 258 1137 258 1112 q 275 1177 258 1162 q 313 1191 293 1191 q 350 1177 333 1191 q 368 1137 368 1162 q 350 1098 368 1112 q 313 1083 333 1083 q 275 1098 293 1083 m 572 1098 q 555 1137 555 1112 q 572 1177 555 1162 q 610 1191 590 1191 q 647 1177 630 1191 q 665 1137 665 1162 q 647 1098 665 1112 q 610 1083 630 1083 q 572 1098 590 1083 "},"ó":{"x_min":44.453125,"x_max":741.71875,"ha":822,"o":"m 144 86 q 393 -9 244 -9 q 641 86 541 -9 q 741 341 741 181 q 641 600 741 501 q 393 698 541 698 q 144 600 244 698 q 44 341 44 501 q 144 86 44 181 m 594 134 q 393 56 513 56 q 191 134 272 56 q 111 341 111 212 q 192 553 111 472 q 393 634 273 634 q 593 553 512 634 q 675 341 675 472 q 594 134 675 212 m 412 805 l 348 805 l 348 811 l 448 966 l 536 966 l 536 965 l 412 805 "}}}
